<?xml version="1.0" encoding="UTF-8" standalone="no"?>
<!DOCTYPE svg PUBLIC "-//W3C//DTD SVG 1.1//EN"
 "http://www.w3.org/Graphics/SVG/1.1/DTD/svg11.dtd">
<!-- Generated by graphviz version 2.49.0 (20210829.0051)
 -->
<!-- Title: snakemake_dag Pages: 1 -->
<svg width="778pt" height="620pt"
 viewBox="0.00 0.00 778.00 620.00" xmlns="http://www.w3.org/2000/svg" xmlns:xlink="http://www.w3.org/1999/xlink">
<g id="graph0" class="graph" transform="scale(1 1) rotate(0) translate(4 616)">
<title>snakemake_dag</title>
<polygon fill="white" stroke="transparent" points="-4,4 -4,-616 774,-616 774,4 -4,4"/>
<!-- 0 -->
<g id="node1" class="node">
<title>0</title>
<path fill="none" stroke="#70d856" stroke-width="2" stroke-dasharray="5,2" d="M270,-36C270,-36 240,-36 240,-36 234,-36 228,-30 228,-24 228,-24 228,-12 228,-12 228,-6 234,0 240,0 240,0 270,0 270,0 276,0 282,-6 282,-12 282,-12 282,-24 282,-24 282,-30 276,-36 270,-36"/>
<text text-anchor="middle" x="255" y="-15.5" font-family="sans" font-size="10.00">all</text>
</g>
<!-- 1 -->
<g id="node2" class="node">
<title>1</title>
<path fill="none" stroke="#d89c56" stroke-width="2" stroke-dasharray="5,2" d="M487.5,-252C487.5,-252 342.5,-252 342.5,-252 336.5,-252 330.5,-246 330.5,-240 330.5,-240 330.5,-228 330.5,-228 330.5,-222 336.5,-216 342.5,-216 342.5,-216 487.5,-216 487.5,-216 493.5,-216 499.5,-222 499.5,-228 499.5,-228 499.5,-240 499.5,-240 499.5,-246 493.5,-252 487.5,-252"/>
<text text-anchor="middle" x="415" y="-231.5" font-family="sans" font-size="10.00">transdecoder_predict_evidence</text>
</g>
<!-- 1&#45;&gt;0 -->
<g id="edge1" class="edge">
<title>1&#45;&gt;0</title>
<path fill="none" stroke="grey" stroke-width="2" d="M330.22,-228.94C255.14,-223.36 153.57,-210.3 128,-180 97.04,-143.32 100.33,-111.91 127,-72 147.08,-41.95 187.7,-28.91 217.82,-23.28"/>
<polygon fill="grey" stroke="grey" stroke-width="2" points="218.7,-26.68 227.98,-21.57 217.54,-19.77 218.7,-26.68"/>
</g>
<!-- 11 -->
<g id="node12" class="node">
<title>11</title>
<path fill="none" stroke="#56c9d8" stroke-width="2" stroke-dasharray="5,2" d="M68,-180C68,-180 32,-180 32,-180 26,-180 20,-174 20,-168 20,-168 20,-156 20,-156 20,-150 26,-144 32,-144 32,-144 68,-144 68,-144 74,-144 80,-150 80,-156 80,-156 80,-168 80,-168 80,-174 74,-180 68,-180"/>
<text text-anchor="middle" x="50" y="-159.5" font-family="sans" font-size="10.00">emapper</text>
</g>
<!-- 1&#45;&gt;11 -->
<g id="edge21" class="edge">
<title>1&#45;&gt;11</title>
<path fill="none" stroke="grey" stroke-width="2" d="M330.18,-223.81C264.87,-215.59 172.74,-201.47 94,-180 92.57,-179.61 91.12,-179.19 89.66,-178.75"/>
<polygon fill="grey" stroke="grey" stroke-width="2" points="90.62,-175.38 80.02,-175.54 88.41,-182.02 90.62,-175.38"/>
</g>
<!-- 14 -->
<g id="node15" class="node">
<title>14</title>
<path fill="none" stroke="#d8cb56" stroke-width="2" stroke-dasharray="5,2" d="M305.5,-180C305.5,-180 148.5,-180 148.5,-180 142.5,-180 136.5,-174 136.5,-168 136.5,-168 136.5,-156 136.5,-156 136.5,-150 142.5,-144 148.5,-144 148.5,-144 305.5,-144 305.5,-144 311.5,-144 317.5,-150 317.5,-156 317.5,-156 317.5,-168 317.5,-168 317.5,-174 311.5,-180 305.5,-180"/>
<text text-anchor="middle" x="227" y="-159.5" font-family="sans" font-size="10.00">interproscan_pfam_panther_sfam</text>
</g>
<!-- 1&#45;&gt;14 -->
<g id="edge24" class="edge">
<title>1&#45;&gt;14</title>
<path fill="none" stroke="grey" stroke-width="2" d="M369.01,-215.88C342.85,-206.14 309.91,-193.87 282.35,-183.61"/>
<polygon fill="grey" stroke="grey" stroke-width="2" points="283.43,-180.28 272.84,-180.07 280.99,-186.84 283.43,-180.28"/>
</g>
<!-- 16 -->
<g id="node17" class="node">
<title>16</title>
<path fill="none" stroke="#56d8c9" stroke-width="2" stroke-dasharray="5,2" d="M758,-108C758,-108 702,-108 702,-108 696,-108 690,-102 690,-96 690,-96 690,-84 690,-84 690,-78 696,-72 702,-72 702,-72 758,-72 758,-72 764,-72 770,-78 770,-84 770,-84 770,-96 770,-96 770,-102 764,-108 758,-108"/>
<text text-anchor="middle" x="730" y="-87.5" font-family="sans" font-size="10.00">recipbesthits</text>
</g>
<!-- 1&#45;&gt;16 -->
<g id="edge26" class="edge">
<title>1&#45;&gt;16</title>
<path fill="none" stroke="grey" stroke-width="2" d="M499.87,-231.43C587,-227.82 714.09,-216.27 745,-180 759.61,-162.86 753.09,-136.91 744.56,-117.45"/>
<polygon fill="grey" stroke="grey" stroke-width="2" points="747.61,-115.74 740.15,-108.22 741.3,-118.75 747.61,-115.74"/>
</g>
<!-- 17 -->
<g id="node18" class="node">
<title>17</title>
<path fill="none" stroke="#5682d8" stroke-width="2" stroke-dasharray="5,2" d="M724,-180C724,-180 668,-180 668,-180 662,-180 656,-174 656,-168 656,-168 656,-156 656,-156 656,-150 662,-144 668,-144 668,-144 724,-144 724,-144 730,-144 736,-150 736,-156 736,-156 736,-168 736,-168 736,-174 730,-180 724,-180"/>
<text text-anchor="middle" x="696" y="-159.5" font-family="sans" font-size="10.00">makeblastdb</text>
</g>
<!-- 1&#45;&gt;17 -->
<g id="edge29" class="edge">
<title>1&#45;&gt;17</title>
<path fill="none" stroke="grey" stroke-width="2" d="M499.6,-216C541.31,-207.07 592.47,-195.29 646.06,-180.13"/>
<polygon fill="grey" stroke="grey" stroke-width="2" points="647.08,-183.48 655.73,-177.36 645.16,-176.75 647.08,-183.48"/>
</g>
<!-- 20 -->
<g id="node21" class="node">
<title>20</title>
<path fill="none" stroke="#d88556" stroke-width="2" stroke-dasharray="5,2" d="M482.5,-180C482.5,-180 347.5,-180 347.5,-180 341.5,-180 335.5,-174 335.5,-168 335.5,-168 335.5,-156 335.5,-156 335.5,-150 341.5,-144 347.5,-144 347.5,-144 482.5,-144 482.5,-144 488.5,-144 494.5,-150 494.5,-156 494.5,-156 494.5,-168 494.5,-168 494.5,-174 488.5,-180 482.5,-180"/>
<text text-anchor="middle" x="415" y="-159.5" font-family="sans" font-size="10.00">OF_prepareSpeciesOfInterest</text>
</g>
<!-- 1&#45;&gt;20 -->
<g id="edge32" class="edge">
<title>1&#45;&gt;20</title>
<path fill="none" stroke="grey" stroke-width="2" d="M415,-215.7C415,-207.98 415,-198.71 415,-190.11"/>
<polygon fill="grey" stroke="grey" stroke-width="2" points="418.5,-190.1 415,-180.1 411.5,-190.1 418.5,-190.1"/>
</g>
<!-- 2 -->
<g id="node3" class="node">
<title>2</title>
<path fill="none" stroke="#566bd8" stroke-width="2" stroke-dasharray="5,2" d="M337.5,-396C337.5,-396 262.5,-396 262.5,-396 256.5,-396 250.5,-390 250.5,-384 250.5,-384 250.5,-372 250.5,-372 250.5,-366 256.5,-360 262.5,-360 262.5,-360 337.5,-360 337.5,-360 343.5,-360 349.5,-366 349.5,-372 349.5,-372 349.5,-384 349.5,-384 349.5,-390 343.5,-396 337.5,-396"/>
<text text-anchor="middle" x="300" y="-375.5" font-family="sans" font-size="10.00">downloadhmmer</text>
</g>
<!-- 2&#45;&gt;1 -->
<g id="edge7" class="edge">
<title>2&#45;&gt;1</title>
<path fill="none" stroke="grey" stroke-width="2" d="M289.45,-359.77C279.24,-340.65 267.32,-309.66 282,-288 291.62,-273.81 305.71,-263.42 321.16,-255.81"/>
<polygon fill="grey" stroke="grey" stroke-width="2" points="322.72,-258.95 330.39,-251.65 319.84,-252.57 322.72,-258.95"/>
</g>
<!-- 9 -->
<g id="node10" class="node">
<title>9</title>
<path fill="none" stroke="#56b1d8" stroke-width="2" stroke-dasharray="5,2" d="M375,-324C375,-324 303,-324 303,-324 297,-324 291,-318 291,-312 291,-312 291,-300 291,-300 291,-294 297,-288 303,-288 303,-288 375,-288 375,-288 381,-288 387,-294 387,-300 387,-300 387,-312 387,-312 387,-318 381,-324 375,-324"/>
<text text-anchor="middle" x="339" y="-303.5" font-family="sans" font-size="10.00">hmmerevidence</text>
</g>
<!-- 2&#45;&gt;9 -->
<g id="edge18" class="edge">
<title>2&#45;&gt;9</title>
<path fill="none" stroke="grey" stroke-width="2" d="M309.64,-359.7C314.13,-351.64 319.56,-341.89 324.52,-332.98"/>
<polygon fill="grey" stroke="grey" stroke-width="2" points="327.66,-334.54 329.47,-324.1 321.55,-331.14 327.66,-334.54"/>
</g>
<!-- 3 -->
<g id="node4" class="node">
<title>3</title>
<path fill="none" stroke="#d86e56" stroke-width="2" stroke-dasharray="5,2" d="M644,-396C644,-396 558,-396 558,-396 552,-396 546,-390 546,-384 546,-384 546,-372 546,-372 546,-366 552,-360 558,-360 558,-360 644,-360 644,-360 650,-360 656,-366 656,-372 656,-372 656,-384 656,-384 656,-390 650,-396 644,-396"/>
<text text-anchor="middle" x="601" y="-375.5" font-family="sans" font-size="10.00">downloadswissprot</text>
</g>
<!-- 3&#45;&gt;1 -->
<g id="edge8" class="edge">
<title>3&#45;&gt;1</title>
<path fill="none" stroke="grey" stroke-width="2" d="M602.13,-359.65C602.45,-339.84 599.84,-307.66 582,-288 563.16,-267.24 536.23,-254.55 509.49,-246.82"/>
<polygon fill="grey" stroke="grey" stroke-width="2" points="510.22,-243.4 499.66,-244.2 508.41,-250.16 510.22,-243.4"/>
</g>
<!-- 10 -->
<g id="node11" class="node">
<title>10</title>
<path fill="none" stroke="#56d86b" stroke-width="2" stroke-dasharray="5,2" d="M560.5,-324C560.5,-324 493.5,-324 493.5,-324 487.5,-324 481.5,-318 481.5,-312 481.5,-312 481.5,-300 481.5,-300 481.5,-294 487.5,-288 493.5,-288 493.5,-288 560.5,-288 560.5,-288 566.5,-288 572.5,-294 572.5,-300 572.5,-300 572.5,-312 572.5,-312 572.5,-318 566.5,-324 560.5,-324"/>
<text text-anchor="middle" x="527" y="-303.5" font-family="sans" font-size="10.00">blastpevidence</text>
</g>
<!-- 3&#45;&gt;10 -->
<g id="edge20" class="edge">
<title>3&#45;&gt;10</title>
<path fill="none" stroke="grey" stroke-width="2" d="M582.71,-359.7C573.57,-351.05 562.36,-340.45 552.4,-331.03"/>
<polygon fill="grey" stroke="grey" stroke-width="2" points="554.75,-328.43 545.08,-324.1 549.94,-333.52 554.75,-328.43"/>
</g>
<!-- 3&#45;&gt;16 -->
<g id="edge27" class="edge">
<title>3&#45;&gt;16</title>
<path fill="none" stroke="grey" stroke-width="2" d="M622.68,-359.77C659.92,-328.62 734.77,-258.78 763,-180 768.4,-164.94 767.4,-159.38 763,-144 760.29,-134.51 755.33,-125.06 750.07,-116.83"/>
<polygon fill="grey" stroke="grey" stroke-width="2" points="752.86,-114.72 744.33,-108.43 747.08,-118.67 752.86,-114.72"/>
</g>
<!-- 4 -->
<g id="node5" class="node">
<title>4</title>
<path fill="none" stroke="#ced856" stroke-width="2" stroke-dasharray="5,2" d="M458,-468C458,-468 428,-468 428,-468 422,-468 416,-462 416,-456 416,-456 416,-444 416,-444 416,-438 422,-432 428,-432 428,-432 458,-432 458,-432 464,-432 470,-438 470,-444 470,-444 470,-456 470,-456 470,-462 464,-468 458,-468"/>
<text text-anchor="middle" x="443" y="-447.5" font-family="sans" font-size="10.00">gffread</text>
</g>
<!-- 4&#45;&gt;1 -->
<g id="edge9" class="edge">
<title>4&#45;&gt;1</title>
<path fill="none" stroke="grey" stroke-width="2" d="M439.86,-431.85C438.02,-421.49 435.73,-408.01 434,-396 427.27,-349.2 421.19,-294.48 417.81,-262.4"/>
<polygon fill="grey" stroke="grey" stroke-width="2" points="421.28,-262.01 416.76,-252.43 414.32,-262.74 421.28,-262.01"/>
</g>
<!-- 8 -->
<g id="node9" class="node">
<title>8</title>
<path fill="none" stroke="#88d856" stroke-width="2" stroke-dasharray="5,2" d="M487,-396C487,-396 455,-396 455,-396 449,-396 443,-390 443,-384 443,-384 443,-372 443,-372 443,-366 449,-360 455,-360 455,-360 487,-360 487,-360 493,-360 499,-366 499,-372 499,-372 499,-384 499,-384 499,-390 493,-396 487,-396"/>
<text text-anchor="middle" x="471" y="-375.5" font-family="sans" font-size="10.00">longorfs</text>
</g>
<!-- 4&#45;&gt;8 -->
<g id="edge16" class="edge">
<title>4&#45;&gt;8</title>
<path fill="none" stroke="grey" stroke-width="2" d="M449.92,-431.7C453.07,-423.81 456.88,-414.3 460.38,-405.55"/>
<polygon fill="grey" stroke="grey" stroke-width="2" points="463.69,-406.69 464.16,-396.1 457.19,-404.09 463.69,-406.69"/>
</g>
<!-- 5 -->
<g id="node6" class="node">
<title>5</title>
<path fill="none" stroke="#56d882" stroke-width="2" stroke-dasharray="5,2" d="M425.5,-540C425.5,-540 354.5,-540 354.5,-540 348.5,-540 342.5,-534 342.5,-528 342.5,-528 342.5,-516 342.5,-516 342.5,-510 348.5,-504 354.5,-504 354.5,-504 425.5,-504 425.5,-504 431.5,-504 437.5,-510 437.5,-516 437.5,-516 437.5,-528 437.5,-528 437.5,-534 431.5,-540 425.5,-540"/>
<text text-anchor="middle" x="390" y="-519.5" font-family="sans" font-size="10.00">longestisoforms</text>
</g>
<!-- 5&#45;&gt;4 -->
<g id="edge13" class="edge">
<title>5&#45;&gt;4</title>
<path fill="none" stroke="grey" stroke-width="2" d="M403.1,-503.7C409.39,-495.39 417.05,-485.28 423.96,-476.14"/>
<polygon fill="grey" stroke="grey" stroke-width="2" points="426.8,-478.19 430.05,-468.1 421.22,-473.96 426.8,-478.19"/>
</g>
<!-- 6 -->
<g id="node7" class="node">
<title>6</title>
<path fill="none" stroke="#56d89a" stroke-width="2" stroke-dasharray="5,2" d="M406.5,-612C406.5,-612 373.5,-612 373.5,-612 367.5,-612 361.5,-606 361.5,-600 361.5,-600 361.5,-588 361.5,-588 361.5,-582 367.5,-576 373.5,-576 373.5,-576 406.5,-576 406.5,-576 412.5,-576 418.5,-582 418.5,-588 418.5,-588 418.5,-600 418.5,-600 418.5,-606 412.5,-612 406.5,-612"/>
<text text-anchor="middle" x="390" y="-591.5" font-family="sans" font-size="10.00">parsegtf</text>
</g>
<!-- 6&#45;&gt;5 -->
<g id="edge15" class="edge">
<title>6&#45;&gt;5</title>
<path fill="none" stroke="grey" stroke-width="2" d="M390,-575.7C390,-567.98 390,-558.71 390,-550.11"/>
<polygon fill="grey" stroke="grey" stroke-width="2" points="393.5,-550.1 390,-540.1 386.5,-550.1 393.5,-550.1"/>
</g>
<!-- 7 -->
<g id="node8" class="node">
<title>7</title>
<path fill="none" stroke="#569ad8" stroke-width="2" stroke-dasharray="5,2" d="M526.5,-540C526.5,-540 467.5,-540 467.5,-540 461.5,-540 455.5,-534 455.5,-528 455.5,-528 455.5,-516 455.5,-516 455.5,-510 461.5,-504 467.5,-504 467.5,-504 526.5,-504 526.5,-504 532.5,-504 538.5,-510 538.5,-516 538.5,-516 538.5,-528 538.5,-528 538.5,-534 532.5,-540 526.5,-540"/>
<text text-anchor="middle" x="497" y="-519.5" font-family="sans" font-size="10.00">genomeindex</text>
</g>
<!-- 7&#45;&gt;4 -->
<g id="edge14" class="edge">
<title>7&#45;&gt;4</title>
<path fill="none" stroke="grey" stroke-width="2" d="M483.65,-503.7C477.24,-495.39 469.44,-485.28 462.39,-476.14"/>
<polygon fill="grey" stroke="grey" stroke-width="2" points="465.07,-473.88 456.19,-468.1 459.53,-478.16 465.07,-473.88"/>
</g>
<!-- 8&#45;&gt;1 -->
<g id="edge10" class="edge">
<title>8&#45;&gt;1</title>
<path fill="none" stroke="grey" stroke-width="2" d="M464.25,-359.87C454.62,-335.46 436.86,-290.43 425.5,-261.64"/>
<polygon fill="grey" stroke="grey" stroke-width="2" points="428.7,-260.21 421.78,-252.19 422.19,-262.78 428.7,-260.21"/>
</g>
<!-- 8&#45;&gt;9 -->
<g id="edge17" class="edge">
<title>8&#45;&gt;9</title>
<path fill="none" stroke="grey" stroke-width="2" d="M442.68,-361.98C424.55,-352.37 400.71,-339.73 380.47,-328.99"/>
<polygon fill="grey" stroke="grey" stroke-width="2" points="381.93,-325.8 371.45,-324.21 378.65,-331.99 381.93,-325.8"/>
</g>
<!-- 8&#45;&gt;10 -->
<g id="edge19" class="edge">
<title>8&#45;&gt;10</title>
<path fill="none" stroke="grey" stroke-width="2" d="M484.84,-359.7C491.49,-351.39 499.58,-341.28 506.89,-332.14"/>
<polygon fill="grey" stroke="grey" stroke-width="2" points="509.8,-334.1 513.32,-324.1 504.34,-329.73 509.8,-334.1"/>
</g>
<!-- 9&#45;&gt;1 -->
<g id="edge11" class="edge">
<title>9&#45;&gt;1</title>
<path fill="none" stroke="grey" stroke-width="2" d="M357.79,-287.7C367.17,-279.05 378.68,-268.45 388.91,-259.03"/>
<polygon fill="grey" stroke="grey" stroke-width="2" points="391.45,-261.45 396.43,-252.1 386.7,-256.3 391.45,-261.45"/>
</g>
<!-- 10&#45;&gt;1 -->
<g id="edge12" class="edge">
<title>10&#45;&gt;1</title>
<path fill="none" stroke="grey" stroke-width="2" d="M499.6,-287.88C485.09,-278.81 467.08,-267.55 451.41,-257.76"/>
<polygon fill="grey" stroke="grey" stroke-width="2" points="452.84,-254.52 442.5,-252.19 449.13,-260.46 452.84,-254.52"/>
</g>
<!-- 11&#45;&gt;0 -->
<g id="edge2" class="edge">
<title>11&#45;&gt;0</title>
<path fill="none" stroke="grey" stroke-width="2" d="M54.17,-143.77C59.87,-123.76 72,-91.09 94,-72 129.19,-41.45 182.46,-28.42 217.97,-22.92"/>
<polygon fill="grey" stroke="grey" stroke-width="2" points="218.52,-26.37 227.93,-21.5 217.54,-19.44 218.52,-26.37"/>
</g>
<!-- 12 -->
<g id="node13" class="node">
<title>12</title>
<path fill="none" stroke="#d85656" stroke-width="2" stroke-dasharray="5,2" d="M88,-252C88,-252 12,-252 12,-252 6,-252 0,-246 0,-240 0,-240 0,-228 0,-228 0,-222 6,-216 12,-216 12,-216 88,-216 88,-216 94,-216 100,-222 100,-228 100,-228 100,-240 100,-240 100,-246 94,-252 88,-252"/>
<text text-anchor="middle" x="50" y="-231.5" font-family="sans" font-size="10.00">downloadeggnog</text>
</g>
<!-- 12&#45;&gt;11 -->
<g id="edge22" class="edge">
<title>12&#45;&gt;11</title>
<path fill="none" stroke="grey" stroke-width="2" d="M50,-215.7C50,-207.98 50,-198.71 50,-190.11"/>
<polygon fill="grey" stroke="grey" stroke-width="2" points="53.5,-190.1 50,-180.1 46.5,-190.1 53.5,-190.1"/>
</g>
<!-- 13 -->
<g id="node14" class="node">
<title>13</title>
<path fill="none" stroke="#56d8b1" stroke-width="2" stroke-dasharray="5,2" d="M234,-108C234,-108 148,-108 148,-108 142,-108 136,-102 136,-96 136,-96 136,-84 136,-84 136,-78 142,-72 148,-72 148,-72 234,-72 234,-72 240,-72 246,-78 246,-84 246,-84 246,-96 246,-96 246,-102 240,-108 234,-108"/>
<text text-anchor="middle" x="191" y="-87.5" font-family="sans" font-size="10.00">parse_ipr_pfam_tfs</text>
</g>
<!-- 13&#45;&gt;0 -->
<g id="edge3" class="edge">
<title>13&#45;&gt;0</title>
<path fill="none" stroke="grey" stroke-width="2" d="M206.82,-71.7C214.57,-63.22 224.04,-52.86 232.52,-43.58"/>
<polygon fill="grey" stroke="grey" stroke-width="2" points="235.2,-45.85 239.36,-36.1 230.03,-41.12 235.2,-45.85"/>
</g>
<!-- 14&#45;&gt;13 -->
<g id="edge23" class="edge">
<title>14&#45;&gt;13</title>
<path fill="none" stroke="grey" stroke-width="2" d="M218.1,-143.7C214,-135.73 209.05,-126.1 204.51,-117.26"/>
<polygon fill="grey" stroke="grey" stroke-width="2" points="207.48,-115.4 199.8,-108.1 201.26,-118.6 207.48,-115.4"/>
</g>
<!-- 15 -->
<g id="node16" class="node">
<title>15</title>
<path fill="none" stroke="#59d856" stroke-width="2" stroke-dasharray="5,2" d="M362,-108C362,-108 276,-108 276,-108 270,-108 264,-102 264,-96 264,-96 264,-84 264,-84 264,-78 270,-72 276,-72 276,-72 362,-72 362,-72 368,-72 374,-78 374,-84 374,-84 374,-96 374,-96 374,-102 368,-108 362,-108"/>
<text text-anchor="middle" x="319" y="-87.5" font-family="sans" font-size="10.00">parse_ipr_sfam_tfs</text>
</g>
<!-- 14&#45;&gt;15 -->
<g id="edge25" class="edge">
<title>14&#45;&gt;15</title>
<path fill="none" stroke="grey" stroke-width="2" d="M249.74,-143.7C261.44,-134.8 275.86,-123.82 288.51,-114.2"/>
<polygon fill="grey" stroke="grey" stroke-width="2" points="290.68,-116.94 296.52,-108.1 286.44,-111.37 290.68,-116.94"/>
</g>
<!-- 15&#45;&gt;0 -->
<g id="edge4" class="edge">
<title>15&#45;&gt;0</title>
<path fill="none" stroke="grey" stroke-width="2" d="M303.18,-71.7C295.43,-63.22 285.96,-52.86 277.48,-43.58"/>
<polygon fill="grey" stroke="grey" stroke-width="2" points="279.97,-41.12 270.64,-36.1 274.8,-45.85 279.97,-41.12"/>
</g>
<!-- 16&#45;&gt;0 -->
<g id="edge5" class="edge">
<title>16&#45;&gt;0</title>
<path fill="none" stroke="grey" stroke-width="2" d="M689.91,-83.09C599.32,-69.74 379.89,-37.4 292.15,-24.48"/>
<polygon fill="grey" stroke="grey" stroke-width="2" points="292.53,-20.99 282.12,-23 291.51,-27.92 292.53,-20.99"/>
</g>
<!-- 17&#45;&gt;16 -->
<g id="edge28" class="edge">
<title>17&#45;&gt;16</title>
<path fill="none" stroke="grey" stroke-width="2" d="M704.4,-143.7C708.27,-135.73 712.95,-126.1 717.24,-117.26"/>
<polygon fill="grey" stroke="grey" stroke-width="2" points="720.47,-118.63 721.69,-108.1 714.17,-115.57 720.47,-118.63"/>
</g>
<!-- 18 -->
<g id="node19" class="node">
<title>18</title>
<path fill="none" stroke="#9fd856" stroke-width="2" stroke-dasharray="5,2" d="M450,-108C450,-108 404,-108 404,-108 398,-108 392,-102 392,-96 392,-96 392,-84 392,-84 392,-78 398,-72 404,-72 404,-72 450,-72 450,-72 456,-72 462,-78 462,-84 462,-84 462,-96 462,-96 462,-102 456,-108 450,-108"/>
<text text-anchor="middle" x="427" y="-87.5" font-family="sans" font-size="10.00">orthofinder</text>
</g>
<!-- 18&#45;&gt;0 -->
<g id="edge6" class="edge">
<title>18&#45;&gt;0</title>
<path fill="none" stroke="grey" stroke-width="2" d="M391.78,-74.67C362.64,-62.81 321.38,-46.02 291.81,-33.98"/>
<polygon fill="grey" stroke="grey" stroke-width="2" points="292.85,-30.62 282.27,-30.1 290.21,-37.11 292.85,-30.62"/>
</g>
<!-- 19 -->
<g id="node20" class="node">
<title>19</title>
<path fill="none" stroke="#b6d856" stroke-width="2" stroke-dasharray="5,2" d="M625.5,-180C625.5,-180 524.5,-180 524.5,-180 518.5,-180 512.5,-174 512.5,-168 512.5,-168 512.5,-156 512.5,-156 512.5,-150 518.5,-144 524.5,-144 524.5,-144 625.5,-144 625.5,-144 631.5,-144 637.5,-150 637.5,-156 637.5,-156 637.5,-168 637.5,-168 637.5,-174 631.5,-180 625.5,-180"/>
<text text-anchor="middle" x="575" y="-159.5" font-family="sans" font-size="10.00">OF_prepareproteomes</text>
</g>
<!-- 19&#45;&gt;18 -->
<g id="edge30" class="edge">
<title>19&#45;&gt;18</title>
<path fill="none" stroke="grey" stroke-width="2" d="M538.8,-143.88C518.44,-134.25 492.88,-122.16 471.34,-111.97"/>
<polygon fill="grey" stroke="grey" stroke-width="2" points="472.6,-108.7 462.07,-107.59 469.61,-115.02 472.6,-108.7"/>
</g>
<!-- 20&#45;&gt;18 -->
<g id="edge31" class="edge">
<title>20&#45;&gt;18</title>
<path fill="none" stroke="grey" stroke-width="2" d="M417.97,-143.7C419.29,-135.98 420.88,-126.71 422.35,-118.11"/>
<polygon fill="grey" stroke="grey" stroke-width="2" points="425.83,-118.55 424.07,-108.1 418.93,-117.37 425.83,-118.55"/>
</g>
</g>
</svg>
