<?xml version="1.0" encoding="UTF-8" standalone="no"?>
<!DOCTYPE svg PUBLIC "-//W3C//DTD SVG 1.1//EN"
 "http://www.w3.org/Graphics/SVG/1.1/DTD/svg11.dtd">
<!-- Generated by graphviz version 2.43.0 (0)
 -->
<!-- Title: snakemake_dag Pages: 1 -->
<svg width="427pt" height="476pt"
 viewBox="0.00 0.00 427.00 476.00" xmlns="http://www.w3.org/2000/svg" xmlns:xlink="http://www.w3.org/1999/xlink">
<g id="graph0" class="graph" transform="scale(1 1) rotate(0) translate(4 472)">
<title>snakemake_dag</title>
<polygon fill="white" stroke="transparent" points="-4,4 -4,-472 423,-472 423,4 -4,4"/>
<!-- 0 -->
<g id="node1" class="node">
<title>0</title>
<path fill="none" stroke="#56d882" stroke-width="2" d="M231.5,-36C231.5,-36 201.5,-36 201.5,-36 195.5,-36 189.5,-30 189.5,-24 189.5,-24 189.5,-12 189.5,-12 189.5,-6 195.5,0 201.5,0 201.5,0 231.5,0 231.5,0 237.5,0 243.5,-6 243.5,-12 243.5,-12 243.5,-24 243.5,-24 243.5,-30 237.5,-36 231.5,-36"/>
<text text-anchor="middle" x="216.5" y="-15.5" font-family="sans" font-size="10.00">all</text>
</g>
<!-- 1 -->
<g id="node2" class="node">
<title>1</title>
<path fill="none" stroke="#56d863" stroke-width="2" stroke-dasharray="5,2" d="M289,-108C289,-108 144,-108 144,-108 138,-108 132,-102 132,-96 132,-96 132,-84 132,-84 132,-78 138,-72 144,-72 144,-72 289,-72 289,-72 295,-72 301,-78 301,-84 301,-84 301,-96 301,-96 301,-102 295,-108 289,-108"/>
<text text-anchor="middle" x="216.5" y="-87.5" font-family="sans" font-size="10.00">transdecoder_predict_evidence</text>
</g>
<!-- 1&#45;&gt;0 -->
<g id="edge1" class="edge">
<title>1&#45;&gt;0</title>
<path fill="none" stroke="grey" stroke-width="2" d="M216.5,-71.7C216.5,-63.98 216.5,-54.71 216.5,-46.11"/>
<polygon fill="grey" stroke="grey" stroke-width="2" points="220,-46.1 216.5,-36.1 213,-46.1 220,-46.1"/>
</g>
<!-- 2 -->
<g id="node3" class="node">
<title>2</title>
<path fill="none" stroke="#ced856" stroke-width="2" stroke-dasharray="5,2" d="M87,-252C87,-252 12,-252 12,-252 6,-252 0,-246 0,-240 0,-240 0,-228 0,-228 0,-222 6,-216 12,-216 12,-216 87,-216 87,-216 93,-216 99,-222 99,-228 99,-228 99,-240 99,-240 99,-246 93,-252 87,-252"/>
<text text-anchor="middle" x="49.5" y="-231.5" font-family="sans" font-size="10.00">downloadhmmer</text>
</g>
<!-- 2&#45;&gt;1 -->
<g id="edge2" class="edge">
<title>2&#45;&gt;1</title>
<path fill="none" stroke="grey" stroke-width="2" d="M43.12,-215.75C37.14,-196.33 31.2,-164.8 46.5,-144 64.28,-119.84 93,-106.38 121.82,-98.98"/>
<polygon fill="grey" stroke="grey" stroke-width="2" points="122.64,-102.38 131.58,-96.69 121.05,-95.56 122.64,-102.38"/>
</g>
<!-- 9 -->
<g id="node10" class="node">
<title>9</title>
<path fill="none" stroke="#d8ac56" stroke-width="2" stroke-dasharray="5,2" d="M139.5,-180C139.5,-180 67.5,-180 67.5,-180 61.5,-180 55.5,-174 55.5,-168 55.5,-168 55.5,-156 55.5,-156 55.5,-150 61.5,-144 67.5,-144 67.5,-144 139.5,-144 139.5,-144 145.5,-144 151.5,-150 151.5,-156 151.5,-156 151.5,-168 151.5,-168 151.5,-174 145.5,-180 139.5,-180"/>
<text text-anchor="middle" x="103.5" y="-159.5" font-family="sans" font-size="10.00">hmmerevidence</text>
</g>
<!-- 2&#45;&gt;9 -->
<g id="edge13" class="edge">
<title>2&#45;&gt;9</title>
<path fill="none" stroke="grey" stroke-width="2" d="M62.85,-215.7C69.26,-207.39 77.06,-197.28 84.11,-188.14"/>
<polygon fill="grey" stroke="grey" stroke-width="2" points="86.97,-190.16 90.31,-180.1 81.43,-185.88 86.97,-190.16"/>
</g>
<!-- 3 -->
<g id="node4" class="node">
<title>3</title>
<path fill="none" stroke="#56d8b9" stroke-width="2" stroke-dasharray="5,2" d="M229.5,-252C229.5,-252 143.5,-252 143.5,-252 137.5,-252 131.5,-246 131.5,-240 131.5,-240 131.5,-228 131.5,-228 131.5,-222 137.5,-216 143.5,-216 143.5,-216 229.5,-216 229.5,-216 235.5,-216 241.5,-222 241.5,-228 241.5,-228 241.5,-240 241.5,-240 241.5,-246 235.5,-252 229.5,-252"/>
<text text-anchor="middle" x="186.5" y="-231.5" font-family="sans" font-size="10.00">downloadswissprot</text>
</g>
<!-- 3&#45;&gt;1 -->
<g id="edge3" class="edge">
<title>3&#45;&gt;1</title>
<path fill="none" stroke="grey" stroke-width="2" d="M188.16,-215.78C190.1,-197.74 193.79,-168.64 199.5,-144 201.49,-135.43 204.21,-126.26 206.89,-117.99"/>
<polygon fill="grey" stroke="grey" stroke-width="2" points="210.23,-119.06 210.09,-108.46 203.59,-116.83 210.23,-119.06"/>
</g>
<!-- 10 -->
<g id="node11" class="node">
<title>10</title>
<path fill="none" stroke="#61d856" stroke-width="2" stroke-dasharray="5,2" d="M287,-180C287,-180 220,-180 220,-180 214,-180 208,-174 208,-168 208,-168 208,-156 208,-156 208,-150 214,-144 220,-144 220,-144 287,-144 287,-144 293,-144 299,-150 299,-156 299,-156 299,-168 299,-168 299,-174 293,-180 287,-180"/>
<text text-anchor="middle" x="253.5" y="-159.5" font-family="sans" font-size="10.00">blastpevidence</text>
</g>
<!-- 3&#45;&gt;10 -->
<g id="edge15" class="edge">
<title>3&#45;&gt;10</title>
<path fill="none" stroke="grey" stroke-width="2" d="M203.06,-215.7C211.18,-207.22 221.09,-196.86 229.97,-187.58"/>
<polygon fill="grey" stroke="grey" stroke-width="2" points="232.74,-189.75 237.13,-180.1 227.69,-184.91 232.74,-189.75"/>
</g>
<!-- 4 -->
<g id="node5" class="node">
<title>4</title>
<path fill="none" stroke="#56c1d8" stroke-width="2" stroke-dasharray="5,2" d="M338.5,-324C338.5,-324 308.5,-324 308.5,-324 302.5,-324 296.5,-318 296.5,-312 296.5,-312 296.5,-300 296.5,-300 296.5,-294 302.5,-288 308.5,-288 308.5,-288 338.5,-288 338.5,-288 344.5,-288 350.5,-294 350.5,-300 350.5,-300 350.5,-312 350.5,-312 350.5,-318 344.5,-324 338.5,-324"/>
<text text-anchor="middle" x="323.5" y="-303.5" font-family="sans" font-size="10.00">gffread</text>
</g>
<!-- 4&#45;&gt;1 -->
<g id="edge4" class="edge">
<title>4&#45;&gt;1</title>
<path fill="none" stroke="grey" stroke-width="2" d="M329.64,-287.86C339.78,-256.24 356.06,-187.95 325.5,-144 316.05,-130.41 302.11,-120.17 287.34,-112.5"/>
<polygon fill="grey" stroke="grey" stroke-width="2" points="288.6,-109.22 278.07,-108.05 285.57,-115.53 288.6,-109.22"/>
</g>
<!-- 8 -->
<g id="node9" class="node">
<title>8</title>
<path fill="none" stroke="#80d856" stroke-width="2" stroke-dasharray="5,2" d="M311.5,-252C311.5,-252 279.5,-252 279.5,-252 273.5,-252 267.5,-246 267.5,-240 267.5,-240 267.5,-228 267.5,-228 267.5,-222 273.5,-216 279.5,-216 279.5,-216 311.5,-216 311.5,-216 317.5,-216 323.5,-222 323.5,-228 323.5,-228 323.5,-240 323.5,-240 323.5,-246 317.5,-252 311.5,-252"/>
<text text-anchor="middle" x="295.5" y="-231.5" font-family="sans" font-size="10.00">longorfs</text>
</g>
<!-- 4&#45;&gt;8 -->
<g id="edge11" class="edge">
<title>4&#45;&gt;8</title>
<path fill="none" stroke="grey" stroke-width="2" d="M316.58,-287.7C313.43,-279.81 309.62,-270.3 306.12,-261.55"/>
<polygon fill="grey" stroke="grey" stroke-width="2" points="309.31,-260.09 302.34,-252.1 302.81,-262.69 309.31,-260.09"/>
</g>
<!-- 5 -->
<g id="node6" class="node">
<title>5</title>
<path fill="none" stroke="#d8c356" stroke-width="2" stroke-dasharray="5,2" d="M306,-396C306,-396 235,-396 235,-396 229,-396 223,-390 223,-384 223,-384 223,-372 223,-372 223,-366 229,-360 235,-360 235,-360 306,-360 306,-360 312,-360 318,-366 318,-372 318,-372 318,-384 318,-384 318,-390 312,-396 306,-396"/>
<text text-anchor="middle" x="270.5" y="-375.5" font-family="sans" font-size="10.00">longestisoforms</text>
</g>
<!-- 5&#45;&gt;4 -->
<g id="edge8" class="edge">
<title>5&#45;&gt;4</title>
<path fill="none" stroke="grey" stroke-width="2" d="M283.6,-359.7C289.89,-351.39 297.55,-341.28 304.46,-332.14"/>
<polygon fill="grey" stroke="grey" stroke-width="2" points="307.3,-334.19 310.55,-324.1 301.72,-329.96 307.3,-334.19"/>
</g>
<!-- 6 -->
<g id="node7" class="node">
<title>6</title>
<path fill="none" stroke="#d85656" stroke-width="2" stroke-dasharray="5,2" d="M287,-468C287,-468 254,-468 254,-468 248,-468 242,-462 242,-456 242,-456 242,-444 242,-444 242,-438 248,-432 254,-432 254,-432 287,-432 287,-432 293,-432 299,-438 299,-444 299,-444 299,-456 299,-456 299,-462 293,-468 287,-468"/>
<text text-anchor="middle" x="270.5" y="-447.5" font-family="sans" font-size="10.00">parsegtf</text>
</g>
<!-- 6&#45;&gt;5 -->
<g id="edge10" class="edge">
<title>6&#45;&gt;5</title>
<path fill="none" stroke="grey" stroke-width="2" d="M270.5,-431.7C270.5,-423.98 270.5,-414.71 270.5,-406.11"/>
<polygon fill="grey" stroke="grey" stroke-width="2" points="274,-406.1 270.5,-396.1 267,-406.1 274,-406.1"/>
</g>
<!-- 7 -->
<g id="node8" class="node">
<title>7</title>
<path fill="none" stroke="#d87556" stroke-width="2" stroke-dasharray="5,2" d="M407,-396C407,-396 348,-396 348,-396 342,-396 336,-390 336,-384 336,-384 336,-372 336,-372 336,-366 342,-360 348,-360 348,-360 407,-360 407,-360 413,-360 419,-366 419,-372 419,-372 419,-384 419,-384 419,-390 413,-396 407,-396"/>
<text text-anchor="middle" x="377.5" y="-375.5" font-family="sans" font-size="10.00">genomeindex</text>
</g>
<!-- 7&#45;&gt;4 -->
<g id="edge9" class="edge">
<title>7&#45;&gt;4</title>
<path fill="none" stroke="grey" stroke-width="2" d="M364.15,-359.7C357.74,-351.39 349.94,-341.28 342.89,-332.14"/>
<polygon fill="grey" stroke="grey" stroke-width="2" points="345.57,-329.88 336.69,-324.1 340.03,-334.16 345.57,-329.88"/>
</g>
<!-- 8&#45;&gt;1 -->
<g id="edge5" class="edge">
<title>8&#45;&gt;1</title>
<path fill="none" stroke="grey" stroke-width="2" d="M304.15,-215.71C312.27,-196.83 321.39,-166.31 308.5,-144 300.93,-130.9 288.76,-120.76 275.72,-113.02"/>
<polygon fill="grey" stroke="grey" stroke-width="2" points="277.05,-109.75 266.59,-108.03 273.69,-115.9 277.05,-109.75"/>
</g>
<!-- 8&#45;&gt;9 -->
<g id="edge12" class="edge">
<title>8&#45;&gt;9</title>
<path fill="none" stroke="grey" stroke-width="2" d="M267.44,-222.32C261.83,-220.21 255.98,-218.02 250.5,-216 221.03,-205.12 188.15,-193.24 160.97,-183.49"/>
<polygon fill="grey" stroke="grey" stroke-width="2" points="161.83,-180.08 151.23,-180 159.47,-186.67 161.83,-180.08"/>
</g>
<!-- 8&#45;&gt;10 -->
<g id="edge14" class="edge">
<title>8&#45;&gt;10</title>
<path fill="none" stroke="grey" stroke-width="2" d="M285.12,-215.7C280.24,-207.56 274.31,-197.69 268.92,-188.7"/>
<polygon fill="grey" stroke="grey" stroke-width="2" points="271.91,-186.88 263.76,-180.1 265.91,-190.48 271.91,-186.88"/>
</g>
<!-- 9&#45;&gt;1 -->
<g id="edge6" class="edge">
<title>9&#45;&gt;1</title>
<path fill="none" stroke="grey" stroke-width="2" d="M131.14,-143.88C145.92,-134.72 164.29,-123.34 180.2,-113.48"/>
<polygon fill="grey" stroke="grey" stroke-width="2" points="182.09,-116.43 188.75,-108.19 178.41,-110.48 182.09,-116.43"/>
</g>
<!-- 10&#45;&gt;1 -->
<g id="edge7" class="edge">
<title>10&#45;&gt;1</title>
<path fill="none" stroke="grey" stroke-width="2" d="M244.35,-143.7C240.1,-135.64 234.94,-125.89 230.23,-116.98"/>
<polygon fill="grey" stroke="grey" stroke-width="2" points="233.31,-115.31 225.54,-108.1 227.12,-118.58 233.31,-115.31"/>
</g>
</g>
</svg>
