<?xml version="1.0" encoding="UTF-8" standalone="no"?>
<!DOCTYPE svg PUBLIC "-//W3C//DTD SVG 1.1//EN"
 "http://www.w3.org/Graphics/SVG/1.1/DTD/svg11.dtd">
<!-- Generated by graphviz version 2.43.0 (0)
 -->
<!-- Title: snakemake_dag Pages: 1 -->
<svg width="364pt" height="620pt"
 viewBox="0.00 0.00 363.50 620.00" xmlns="http://www.w3.org/2000/svg" xmlns:xlink="http://www.w3.org/1999/xlink">
<g id="graph0" class="graph" transform="scale(1 1) rotate(0) translate(4 616)">
<title>snakemake_dag</title>
<polygon fill="white" stroke="transparent" points="-4,4 -4,-616 359.5,-616 359.5,4 -4,4"/>
<!-- 0 -->
<g id="node1" class="node">
<title>0</title>
<path fill="none" stroke="#78d856" stroke-width="2" d="M217,-36C217,-36 187,-36 187,-36 181,-36 175,-30 175,-24 175,-24 175,-12 175,-12 175,-6 181,0 187,0 187,0 217,0 217,0 223,0 229,-6 229,-12 229,-12 229,-24 229,-24 229,-30 223,-36 217,-36"/>
<text text-anchor="middle" x="202" y="-15.5" font-family="sans" font-size="10.00">all</text>
</g>
<!-- 1 -->
<g id="node2" class="node">
<title>1</title>
<path fill="none" stroke="#56d8b9" stroke-width="2" d="M341.5,-252C341.5,-252 196.5,-252 196.5,-252 190.5,-252 184.5,-246 184.5,-240 184.5,-240 184.5,-228 184.5,-228 184.5,-222 190.5,-216 196.5,-216 196.5,-216 341.5,-216 341.5,-216 347.5,-216 353.5,-222 353.5,-228 353.5,-228 353.5,-240 353.5,-240 353.5,-246 347.5,-252 341.5,-252"/>
<text text-anchor="middle" x="269" y="-231.5" font-family="sans" font-size="10.00">transdecoder_predict_evidence</text>
</g>
<!-- 1&#45;&gt;0 -->
<g id="edge1" class="edge">
<title>1&#45;&gt;0</title>
<path fill="none" stroke="grey" stroke-width="2" d="M271.16,-215.75C274.18,-184.84 276.72,-118.84 251,-72 245.37,-61.74 237.32,-51.91 229.37,-43.56"/>
<polygon fill="grey" stroke="grey" stroke-width="2" points="231.71,-40.96 222.17,-36.35 226.76,-45.9 231.71,-40.96"/>
</g>
<!-- 11 -->
<g id="node12" class="node">
<title>11</title>
<path fill="none" stroke="#97d856" stroke-width="2" d="M132,-180C132,-180 96,-180 96,-180 90,-180 84,-174 84,-168 84,-168 84,-156 84,-156 84,-150 90,-144 96,-144 96,-144 132,-144 132,-144 138,-144 144,-150 144,-156 144,-156 144,-168 144,-168 144,-174 138,-180 132,-180"/>
<text text-anchor="middle" x="114" y="-159.5" font-family="sans" font-size="10.00">emapper</text>
</g>
<!-- 1&#45;&gt;11 -->
<g id="edge16" class="edge">
<title>1&#45;&gt;11</title>
<path fill="none" stroke="grey" stroke-width="2" d="M231.08,-215.88C207.5,-205.23 177.24,-191.56 153.39,-180.79"/>
<polygon fill="grey" stroke="grey" stroke-width="2" points="154.82,-177.59 144.27,-176.67 151.94,-183.97 154.82,-177.59"/>
</g>
<!-- 13 -->
<g id="node14" class="node">
<title>13</title>
<path fill="none" stroke="#569ad8" stroke-width="2" d="M230,-108C230,-108 174,-108 174,-108 168,-108 162,-102 162,-96 162,-96 162,-84 162,-84 162,-78 168,-72 174,-72 174,-72 230,-72 230,-72 236,-72 242,-78 242,-84 242,-84 242,-96 242,-96 242,-102 236,-108 230,-108"/>
<text text-anchor="middle" x="202" y="-87.5" font-family="sans" font-size="10.00">recipbesthits</text>
</g>
<!-- 1&#45;&gt;13 -->
<g id="edge18" class="edge">
<title>1&#45;&gt;13</title>
<path fill="none" stroke="grey" stroke-width="2" d="M268.26,-215.7C266.85,-197.07 262.77,-167.02 251,-144 245.67,-133.58 237.7,-123.71 229.74,-115.37"/>
<polygon fill="grey" stroke="grey" stroke-width="2" points="232.06,-112.74 222.5,-108.17 227.12,-117.71 232.06,-112.74"/>
</g>
<!-- 14 -->
<g id="node15" class="node">
<title>14</title>
<path fill="none" stroke="#567bd8" stroke-width="2" d="M230,-180C230,-180 174,-180 174,-180 168,-180 162,-174 162,-168 162,-168 162,-156 162,-156 162,-150 168,-144 174,-144 174,-144 230,-144 230,-144 236,-144 242,-150 242,-156 242,-156 242,-168 242,-168 242,-174 236,-180 230,-180"/>
<text text-anchor="middle" x="202" y="-159.5" font-family="sans" font-size="10.00">makeblastdb</text>
</g>
<!-- 1&#45;&gt;14 -->
<g id="edge21" class="edge">
<title>1&#45;&gt;14</title>
<path fill="none" stroke="grey" stroke-width="2" d="M252.44,-215.7C244.32,-207.22 234.41,-196.86 225.53,-187.58"/>
<polygon fill="grey" stroke="grey" stroke-width="2" points="227.81,-184.91 218.37,-180.1 222.76,-189.75 227.81,-184.91"/>
</g>
<!-- 2 -->
<g id="node3" class="node">
<title>2</title>
<path fill="none" stroke="#d87556" stroke-width="2" d="M275,-468C275,-468 245,-468 245,-468 239,-468 233,-462 233,-456 233,-456 233,-444 233,-444 233,-438 239,-432 245,-432 245,-432 275,-432 275,-432 281,-432 287,-438 287,-444 287,-444 287,-456 287,-456 287,-462 281,-468 275,-468"/>
<text text-anchor="middle" x="260" y="-447.5" font-family="sans" font-size="10.00">gffread</text>
</g>
<!-- 2&#45;&gt;1 -->
<g id="edge4" class="edge">
<title>2&#45;&gt;1</title>
<path fill="none" stroke="grey" stroke-width="2" d="M287.34,-435.62C302.33,-426.67 319.53,-413.35 328,-396 334.45,-382.79 335.8,-309.66 326,-288 320.91,-276.75 312.19,-266.77 303.08,-258.6"/>
<polygon fill="grey" stroke="grey" stroke-width="2" points="305.32,-255.91 295.4,-252.17 300.82,-261.27 305.32,-255.91"/>
</g>
<!-- 6 -->
<g id="node7" class="node">
<title>6</title>
<path fill="none" stroke="#59d856" stroke-width="2" d="M189,-396C189,-396 157,-396 157,-396 151,-396 145,-390 145,-384 145,-384 145,-372 145,-372 145,-366 151,-360 157,-360 157,-360 189,-360 189,-360 195,-360 201,-366 201,-372 201,-372 201,-384 201,-384 201,-390 195,-396 189,-396"/>
<text text-anchor="middle" x="173" y="-375.5" font-family="sans" font-size="10.00">longorfs</text>
</g>
<!-- 2&#45;&gt;6 -->
<g id="edge11" class="edge">
<title>2&#45;&gt;6</title>
<path fill="none" stroke="grey" stroke-width="2" d="M238.49,-431.7C227.54,-422.88 214.05,-412.03 202.18,-402.47"/>
<polygon fill="grey" stroke="grey" stroke-width="2" points="204.24,-399.65 194.26,-396.1 199.86,-405.1 204.24,-399.65"/>
</g>
<!-- 3 -->
<g id="node4" class="node">
<title>3</title>
<path fill="none" stroke="#d85656" stroke-width="2" d="M242.5,-540C242.5,-540 171.5,-540 171.5,-540 165.5,-540 159.5,-534 159.5,-528 159.5,-528 159.5,-516 159.5,-516 159.5,-510 165.5,-504 171.5,-504 171.5,-504 242.5,-504 242.5,-504 248.5,-504 254.5,-510 254.5,-516 254.5,-516 254.5,-528 254.5,-528 254.5,-534 248.5,-540 242.5,-540"/>
<text text-anchor="middle" x="207" y="-519.5" font-family="sans" font-size="10.00">longestisoforms</text>
</g>
<!-- 3&#45;&gt;2 -->
<g id="edge8" class="edge">
<title>3&#45;&gt;2</title>
<path fill="none" stroke="grey" stroke-width="2" d="M220.1,-503.7C226.39,-495.39 234.05,-485.28 240.96,-476.14"/>
<polygon fill="grey" stroke="grey" stroke-width="2" points="243.8,-478.19 247.05,-468.1 238.22,-473.96 243.8,-478.19"/>
</g>
<!-- 4 -->
<g id="node5" class="node">
<title>4</title>
<path fill="none" stroke="#56d8d8" stroke-width="2" d="M223.5,-612C223.5,-612 190.5,-612 190.5,-612 184.5,-612 178.5,-606 178.5,-600 178.5,-600 178.5,-588 178.5,-588 178.5,-582 184.5,-576 190.5,-576 190.5,-576 223.5,-576 223.5,-576 229.5,-576 235.5,-582 235.5,-588 235.5,-588 235.5,-600 235.5,-600 235.5,-606 229.5,-612 223.5,-612"/>
<text text-anchor="middle" x="207" y="-591.5" font-family="sans" font-size="10.00">parsegtf</text>
</g>
<!-- 4&#45;&gt;3 -->
<g id="edge10" class="edge">
<title>4&#45;&gt;3</title>
<path fill="none" stroke="grey" stroke-width="2" d="M207,-575.7C207,-567.98 207,-558.71 207,-550.11"/>
<polygon fill="grey" stroke="grey" stroke-width="2" points="210.5,-550.1 207,-540.1 203.5,-550.1 210.5,-550.1"/>
</g>
<!-- 5 -->
<g id="node6" class="node">
<title>5</title>
<path fill="none" stroke="#d8b456" stroke-width="2" d="M343.5,-540C343.5,-540 284.5,-540 284.5,-540 278.5,-540 272.5,-534 272.5,-528 272.5,-528 272.5,-516 272.5,-516 272.5,-510 278.5,-504 284.5,-504 284.5,-504 343.5,-504 343.5,-504 349.5,-504 355.5,-510 355.5,-516 355.5,-516 355.5,-528 355.5,-528 355.5,-534 349.5,-540 343.5,-540"/>
<text text-anchor="middle" x="314" y="-519.5" font-family="sans" font-size="10.00">genomeindex</text>
</g>
<!-- 5&#45;&gt;2 -->
<g id="edge9" class="edge">
<title>5&#45;&gt;2</title>
<path fill="none" stroke="grey" stroke-width="2" d="M300.65,-503.7C294.24,-495.39 286.44,-485.28 279.39,-476.14"/>
<polygon fill="grey" stroke="grey" stroke-width="2" points="282.07,-473.88 273.19,-468.1 276.53,-478.16 282.07,-473.88"/>
</g>
<!-- 6&#45;&gt;1 -->
<g id="edge5" class="edge">
<title>6&#45;&gt;1</title>
<path fill="none" stroke="grey" stroke-width="2" d="M178.17,-359.86C184.34,-341.11 195.89,-310.7 212,-288 219.52,-277.41 229.42,-267.31 238.86,-258.81"/>
<polygon fill="grey" stroke="grey" stroke-width="2" points="241.36,-261.28 246.62,-252.08 236.77,-255.99 241.36,-261.28"/>
</g>
<!-- 7 -->
<g id="node8" class="node">
<title>7</title>
<path fill="none" stroke="#d6d856" stroke-width="2" d="M305,-324C305,-324 233,-324 233,-324 227,-324 221,-318 221,-312 221,-312 221,-300 221,-300 221,-294 227,-288 233,-288 233,-288 305,-288 305,-288 311,-288 317,-294 317,-300 317,-300 317,-312 317,-312 317,-318 311,-324 305,-324"/>
<text text-anchor="middle" x="269" y="-303.5" font-family="sans" font-size="10.00">hmmerevidence</text>
</g>
<!-- 6&#45;&gt;7 -->
<g id="edge12" class="edge">
<title>6&#45;&gt;7</title>
<path fill="none" stroke="grey" stroke-width="2" d="M196.73,-359.7C208.94,-350.8 223.99,-339.82 237.18,-330.2"/>
<polygon fill="grey" stroke="grey" stroke-width="2" points="239.52,-332.82 245.54,-324.1 235.4,-327.17 239.52,-332.82"/>
</g>
<!-- 9 -->
<g id="node10" class="node">
<title>9</title>
<path fill="none" stroke="#d89556" stroke-width="2" d="M152.5,-324C152.5,-324 85.5,-324 85.5,-324 79.5,-324 73.5,-318 73.5,-312 73.5,-312 73.5,-300 73.5,-300 73.5,-294 79.5,-288 85.5,-288 85.5,-288 152.5,-288 152.5,-288 158.5,-288 164.5,-294 164.5,-300 164.5,-300 164.5,-312 164.5,-312 164.5,-318 158.5,-324 152.5,-324"/>
<text text-anchor="middle" x="119" y="-303.5" font-family="sans" font-size="10.00">blastpevidence</text>
</g>
<!-- 6&#45;&gt;9 -->
<g id="edge14" class="edge">
<title>6&#45;&gt;9</title>
<path fill="none" stroke="grey" stroke-width="2" d="M159.65,-359.7C153.24,-351.39 145.44,-341.28 138.39,-332.14"/>
<polygon fill="grey" stroke="grey" stroke-width="2" points="141.07,-329.88 132.19,-324.1 135.53,-334.16 141.07,-329.88"/>
</g>
<!-- 7&#45;&gt;1 -->
<g id="edge6" class="edge">
<title>7&#45;&gt;1</title>
<path fill="none" stroke="grey" stroke-width="2" d="M269,-287.7C269,-279.98 269,-270.71 269,-262.11"/>
<polygon fill="grey" stroke="grey" stroke-width="2" points="272.5,-262.1 269,-252.1 265.5,-262.1 272.5,-262.1"/>
</g>
<!-- 8 -->
<g id="node9" class="node">
<title>8</title>
<path fill="none" stroke="#56b9d8" stroke-width="2" d="M306.5,-396C306.5,-396 231.5,-396 231.5,-396 225.5,-396 219.5,-390 219.5,-384 219.5,-384 219.5,-372 219.5,-372 219.5,-366 225.5,-360 231.5,-360 231.5,-360 306.5,-360 306.5,-360 312.5,-360 318.5,-366 318.5,-372 318.5,-372 318.5,-384 318.5,-384 318.5,-390 312.5,-396 306.5,-396"/>
<text text-anchor="middle" x="269" y="-375.5" font-family="sans" font-size="10.00">downloadhmmer</text>
</g>
<!-- 8&#45;&gt;7 -->
<g id="edge13" class="edge">
<title>8&#45;&gt;7</title>
<path fill="none" stroke="grey" stroke-width="2" d="M269,-359.7C269,-351.98 269,-342.71 269,-334.11"/>
<polygon fill="grey" stroke="grey" stroke-width="2" points="272.5,-334.1 269,-324.1 265.5,-334.1 272.5,-334.1"/>
</g>
<!-- 9&#45;&gt;1 -->
<g id="edge7" class="edge">
<title>9&#45;&gt;1</title>
<path fill="none" stroke="grey" stroke-width="2" d="M155.69,-287.88C176.02,-278.39 201.47,-266.51 223.1,-256.42"/>
<polygon fill="grey" stroke="grey" stroke-width="2" points="224.84,-259.47 232.43,-252.07 221.88,-253.13 224.84,-259.47"/>
</g>
<!-- 10 -->
<g id="node11" class="node">
<title>10</title>
<path fill="none" stroke="#56d89a" stroke-width="2" d="M98,-396C98,-396 12,-396 12,-396 6,-396 0,-390 0,-384 0,-384 0,-372 0,-372 0,-366 6,-360 12,-360 12,-360 98,-360 98,-360 104,-360 110,-366 110,-372 110,-372 110,-384 110,-384 110,-390 104,-396 98,-396"/>
<text text-anchor="middle" x="55" y="-375.5" font-family="sans" font-size="10.00">downloadswissprot</text>
</g>
<!-- 10&#45;&gt;9 -->
<g id="edge15" class="edge">
<title>10&#45;&gt;9</title>
<path fill="none" stroke="grey" stroke-width="2" d="M70.82,-359.7C78.57,-351.22 88.04,-340.86 96.52,-331.58"/>
<polygon fill="grey" stroke="grey" stroke-width="2" points="99.2,-333.85 103.36,-324.1 94.03,-329.12 99.2,-333.85"/>
</g>
<!-- 10&#45;&gt;13 -->
<g id="edge19" class="edge">
<title>10&#45;&gt;13</title>
<path fill="none" stroke="grey" stroke-width="2" d="M50.46,-359.84C40.36,-317.47 21,-206.8 75,-144 94.54,-121.27 125.44,-108.09 151.86,-100.56"/>
<polygon fill="grey" stroke="grey" stroke-width="2" points="152.97,-103.89 161.74,-97.94 151.17,-97.12 152.97,-103.89"/>
</g>
<!-- 11&#45;&gt;0 -->
<g id="edge2" class="edge">
<title>11&#45;&gt;0</title>
<path fill="none" stroke="grey" stroke-width="2" d="M119.62,-143.75C126.1,-125.16 137.85,-95.15 153,-72 159.52,-62.05 167.94,-52.19 175.96,-43.72"/>
<polygon fill="grey" stroke="grey" stroke-width="2" points="178.65,-45.97 183.14,-36.37 173.65,-41.08 178.65,-45.97"/>
</g>
<!-- 12 -->
<g id="node13" class="node">
<title>12</title>
<path fill="none" stroke="#b6d856" stroke-width="2" d="M154,-252C154,-252 78,-252 78,-252 72,-252 66,-246 66,-240 66,-240 66,-228 66,-228 66,-222 72,-216 78,-216 78,-216 154,-216 154,-216 160,-216 166,-222 166,-228 166,-228 166,-240 166,-240 166,-246 160,-252 154,-252"/>
<text text-anchor="middle" x="116" y="-231.5" font-family="sans" font-size="10.00">downloadeggnog</text>
</g>
<!-- 12&#45;&gt;11 -->
<g id="edge17" class="edge">
<title>12&#45;&gt;11</title>
<path fill="none" stroke="grey" stroke-width="2" d="M115.51,-215.7C115.29,-207.98 115.02,-198.71 114.77,-190.11"/>
<polygon fill="grey" stroke="grey" stroke-width="2" points="118.27,-190 114.49,-180.1 111.28,-190.2 118.27,-190"/>
</g>
<!-- 13&#45;&gt;0 -->
<g id="edge3" class="edge">
<title>13&#45;&gt;0</title>
<path fill="none" stroke="grey" stroke-width="2" d="M202,-71.7C202,-63.98 202,-54.71 202,-46.11"/>
<polygon fill="grey" stroke="grey" stroke-width="2" points="205.5,-46.1 202,-36.1 198.5,-46.1 205.5,-46.1"/>
</g>
<!-- 14&#45;&gt;13 -->
<g id="edge20" class="edge">
<title>14&#45;&gt;13</title>
<path fill="none" stroke="grey" stroke-width="2" d="M202,-143.7C202,-135.98 202,-126.71 202,-118.11"/>
<polygon fill="grey" stroke="grey" stroke-width="2" points="205.5,-118.1 202,-108.1 198.5,-118.1 205.5,-118.1"/>
</g>
</g>
</svg>
