<?xml version="1.0" encoding="UTF-8" standalone="no"?>
<!DOCTYPE svg PUBLIC "-//W3C//DTD SVG 1.1//EN"
 "http://www.w3.org/Graphics/SVG/1.1/DTD/svg11.dtd">
<!-- Generated by graphviz version 2.49.0 (20210829.0051)
 -->
<!-- Title: snakemake_dag Pages: 1 -->
<svg width="429pt" height="404pt"
 viewBox="0.00 0.00 429.00 404.00" xmlns="http://www.w3.org/2000/svg" xmlns:xlink="http://www.w3.org/1999/xlink">
<g id="graph0" class="graph" transform="scale(1 1) rotate(0) translate(4 400)">
<title>snakemake_dag</title>
<polygon fill="white" stroke="transparent" points="-4,4 -4,-400 425,-400 425,4 -4,4"/>
<!-- 0 -->
<g id="node1" class="node">
<title>0</title>
<path fill="none" stroke="#56d8d0" stroke-width="2" d="M211,-36C211,-36 181,-36 181,-36 175,-36 169,-30 169,-24 169,-24 169,-12 169,-12 169,-6 175,0 181,0 181,0 211,0 211,0 217,0 223,-6 223,-12 223,-12 223,-24 223,-24 223,-30 217,-36 211,-36"/>
<text text-anchor="middle" x="196" y="-15.5" font-family="sans" font-size="10.00">all</text>
</g>
<!-- 1 -->
<g id="node2" class="node">
<title>1</title>
<path fill="none" stroke="#61d856" stroke-width="2" stroke-dasharray="5,2" d="M275.5,-252C275.5,-252 130.5,-252 130.5,-252 124.5,-252 118.5,-246 118.5,-240 118.5,-240 118.5,-228 118.5,-228 118.5,-222 124.5,-216 130.5,-216 130.5,-216 275.5,-216 275.5,-216 281.5,-216 287.5,-222 287.5,-228 287.5,-228 287.5,-240 287.5,-240 287.5,-246 281.5,-252 275.5,-252"/>
<text text-anchor="middle" x="203" y="-231.5" font-family="sans" font-size="10.00">transdecoder_predict_evidence</text>
</g>
<!-- 1&#45;&gt;0 -->
<g id="edge1" class="edge">
<title>1&#45;&gt;0</title>
<path fill="none" stroke="grey" stroke-width="2" d="M191.18,-215.71C185.08,-205.74 178.24,-192.7 175,-180 163.13,-133.49 164.62,-119.08 174,-72 175.79,-63.01 179.14,-53.64 182.69,-45.32"/>
<polygon fill="grey" stroke="grey" stroke-width="2" points="185.92,-46.67 186.87,-36.12 179.54,-43.77 185.92,-46.67"/>
</g>
<!-- 7 -->
<g id="node8" class="node">
<title>7</title>
<path fill="none" stroke="#d8ac56" stroke-width="2" stroke-dasharray="5,2" d="M115,-180C115,-180 79,-180 79,-180 73,-180 67,-174 67,-168 67,-168 67,-156 67,-156 67,-150 73,-144 79,-144 79,-144 115,-144 115,-144 121,-144 127,-150 127,-156 127,-156 127,-168 127,-168 127,-174 121,-180 115,-180"/>
<text text-anchor="middle" x="97" y="-159.5" font-family="sans" font-size="10.00">emapper</text>
</g>
<!-- 1&#45;&gt;7 -->
<g id="edge14" class="edge">
<title>1&#45;&gt;7</title>
<path fill="none" stroke="grey" stroke-width="2" d="M177.07,-215.88C163.34,-206.81 146.29,-195.55 131.46,-185.76"/>
<polygon fill="grey" stroke="grey" stroke-width="2" points="133.3,-182.78 123.03,-180.19 129.45,-188.62 133.3,-182.78"/>
</g>
<!-- 10 -->
<g id="node11" class="node">
<title>10</title>
<path fill="none" stroke="#d87556" stroke-width="2" d="M352.5,-180C352.5,-180 195.5,-180 195.5,-180 189.5,-180 183.5,-174 183.5,-168 183.5,-168 183.5,-156 183.5,-156 183.5,-150 189.5,-144 195.5,-144 195.5,-144 352.5,-144 352.5,-144 358.5,-144 364.5,-150 364.5,-156 364.5,-156 364.5,-168 364.5,-168 364.5,-174 358.5,-180 352.5,-180"/>
<text text-anchor="middle" x="274" y="-159.5" font-family="sans" font-size="10.00">interproscan_pfam_panther_sfam</text>
</g>
<!-- 1&#45;&gt;10 -->
<g id="edge17" class="edge">
<title>1&#45;&gt;10</title>
<path fill="none" stroke="grey" stroke-width="2" d="M220.55,-215.7C229.23,-207.14 239.86,-196.66 249.35,-187.3"/>
<polygon fill="grey" stroke="grey" stroke-width="2" points="251.99,-189.62 256.65,-180.1 247.07,-184.63 251.99,-189.62"/>
</g>
<!-- 2 -->
<g id="node3" class="node">
<title>2</title>
<path fill="none" stroke="#d8c356" stroke-width="2" stroke-dasharray="5,2" d="M116.5,-396C116.5,-396 41.5,-396 41.5,-396 35.5,-396 29.5,-390 29.5,-384 29.5,-384 29.5,-372 29.5,-372 29.5,-366 35.5,-360 41.5,-360 41.5,-360 116.5,-360 116.5,-360 122.5,-360 128.5,-366 128.5,-372 128.5,-372 128.5,-384 128.5,-384 128.5,-390 122.5,-396 116.5,-396"/>
<text text-anchor="middle" x="79" y="-375.5" font-family="sans" font-size="10.00">downloadhmmer</text>
</g>
<!-- 2&#45;&gt;1 -->
<g id="edge5" class="edge">
<title>2&#45;&gt;1</title>
<path fill="none" stroke="grey" stroke-width="2" d="M71.22,-359.99C63.71,-340.8 55.45,-309.47 70,-288 79.62,-273.81 93.71,-263.42 109.16,-255.81"/>
<polygon fill="grey" stroke="grey" stroke-width="2" points="110.72,-258.95 118.39,-251.65 107.84,-252.57 110.72,-258.95"/>
</g>
<!-- 5 -->
<g id="node6" class="node">
<title>5</title>
<path fill="none" stroke="#ced856" stroke-width="2" stroke-dasharray="5,2" d="M163,-324C163,-324 91,-324 91,-324 85,-324 79,-318 79,-312 79,-312 79,-300 79,-300 79,-294 85,-288 91,-288 91,-288 163,-288 163,-288 169,-288 175,-294 175,-300 175,-300 175,-312 175,-312 175,-318 169,-324 163,-324"/>
<text text-anchor="middle" x="127" y="-303.5" font-family="sans" font-size="10.00">hmmerevidence</text>
</g>
<!-- 2&#45;&gt;5 -->
<g id="edge11" class="edge">
<title>2&#45;&gt;5</title>
<path fill="none" stroke="grey" stroke-width="2" d="M90.87,-359.7C96.5,-351.47 103.35,-341.48 109.57,-332.42"/>
<polygon fill="grey" stroke="grey" stroke-width="2" points="112.5,-334.33 115.27,-324.1 106.73,-330.37 112.5,-334.33"/>
</g>
<!-- 3 -->
<g id="node4" class="node">
<title>3</title>
<path fill="none" stroke="#56a9d8" stroke-width="2" stroke-dasharray="5,2" d="M370,-396C370,-396 284,-396 284,-396 278,-396 272,-390 272,-384 272,-384 272,-372 272,-372 272,-366 278,-360 284,-360 284,-360 370,-360 370,-360 376,-360 382,-366 382,-372 382,-372 382,-384 382,-384 382,-390 376,-396 370,-396"/>
<text text-anchor="middle" x="327" y="-375.5" font-family="sans" font-size="10.00">downloadswissprot</text>
</g>
<!-- 3&#45;&gt;1 -->
<g id="edge6" class="edge">
<title>3&#45;&gt;1</title>
<path fill="none" stroke="grey" stroke-width="2" d="M333.61,-359.99C339.88,-340.8 346.39,-309.47 332,-288 322.73,-274.18 309.14,-263.95 294.22,-256.4"/>
<polygon fill="grey" stroke="grey" stroke-width="2" points="295.33,-253.05 284.78,-252.03 292.39,-259.41 295.33,-253.05"/>
</g>
<!-- 6 -->
<g id="node7" class="node">
<title>6</title>
<path fill="none" stroke="#80d856" stroke-width="2" stroke-dasharray="5,2" d="M310.5,-324C310.5,-324 243.5,-324 243.5,-324 237.5,-324 231.5,-318 231.5,-312 231.5,-312 231.5,-300 231.5,-300 231.5,-294 237.5,-288 243.5,-288 243.5,-288 310.5,-288 310.5,-288 316.5,-288 322.5,-294 322.5,-300 322.5,-300 322.5,-312 322.5,-312 322.5,-318 316.5,-324 310.5,-324"/>
<text text-anchor="middle" x="277" y="-303.5" font-family="sans" font-size="10.00">blastpevidence</text>
</g>
<!-- 3&#45;&gt;6 -->
<g id="edge13" class="edge">
<title>3&#45;&gt;6</title>
<path fill="none" stroke="grey" stroke-width="2" d="M314.64,-359.7C308.77,-351.47 301.63,-341.48 295.16,-332.42"/>
<polygon fill="grey" stroke="grey" stroke-width="2" points="297.88,-330.21 289.22,-324.1 292.18,-334.28 297.88,-330.21"/>
</g>
<!-- 4 -->
<g id="node5" class="node">
<title>4</title>
<path fill="none" stroke="#97d856" stroke-width="2" stroke-dasharray="5,2" d="M219,-396C219,-396 187,-396 187,-396 181,-396 175,-390 175,-384 175,-384 175,-372 175,-372 175,-366 181,-360 187,-360 187,-360 219,-360 219,-360 225,-360 231,-366 231,-372 231,-372 231,-384 231,-384 231,-390 225,-396 219,-396"/>
<text text-anchor="middle" x="203" y="-375.5" font-family="sans" font-size="10.00">longorfs</text>
</g>
<!-- 4&#45;&gt;1 -->
<g id="edge7" class="edge">
<title>4&#45;&gt;1</title>
<path fill="none" stroke="grey" stroke-width="2" d="M203,-359.87C203,-335.67 203,-291.21 203,-262.39"/>
<polygon fill="grey" stroke="grey" stroke-width="2" points="206.5,-262.19 203,-252.19 199.5,-262.19 206.5,-262.19"/>
</g>
<!-- 4&#45;&gt;5 -->
<g id="edge10" class="edge">
<title>4&#45;&gt;5</title>
<path fill="none" stroke="grey" stroke-width="2" d="M184.21,-359.7C174.83,-351.05 163.32,-340.45 153.09,-331.03"/>
<polygon fill="grey" stroke="grey" stroke-width="2" points="155.3,-328.3 145.57,-324.1 150.55,-333.45 155.3,-328.3"/>
</g>
<!-- 4&#45;&gt;6 -->
<g id="edge12" class="edge">
<title>4&#45;&gt;6</title>
<path fill="none" stroke="grey" stroke-width="2" d="M221.29,-359.7C230.43,-351.05 241.64,-340.45 251.6,-331.03"/>
<polygon fill="grey" stroke="grey" stroke-width="2" points="254.06,-333.52 258.92,-324.1 249.25,-328.43 254.06,-333.52"/>
</g>
<!-- 5&#45;&gt;1 -->
<g id="edge8" class="edge">
<title>5&#45;&gt;1</title>
<path fill="none" stroke="grey" stroke-width="2" d="M145.79,-287.7C155.17,-279.05 166.68,-268.45 176.91,-259.03"/>
<polygon fill="grey" stroke="grey" stroke-width="2" points="179.45,-261.45 184.43,-252.1 174.7,-256.3 179.45,-261.45"/>
</g>
<!-- 6&#45;&gt;1 -->
<g id="edge9" class="edge">
<title>6&#45;&gt;1</title>
<path fill="none" stroke="grey" stroke-width="2" d="M258.71,-287.7C249.57,-279.05 238.36,-268.45 228.4,-259.03"/>
<polygon fill="grey" stroke="grey" stroke-width="2" points="230.75,-256.43 221.08,-252.1 225.94,-261.52 230.75,-256.43"/>
</g>
<!-- 7&#45;&gt;0 -->
<g id="edge2" class="edge">
<title>7&#45;&gt;0</title>
<path fill="none" stroke="grey" stroke-width="2" d="M103.36,-143.96C110.78,-125.29 124.21,-94.95 141,-72 148.58,-61.63 158.3,-51.52 167.46,-42.96"/>
<polygon fill="grey" stroke="grey" stroke-width="2" points="169.9,-45.47 174.95,-36.16 165.2,-40.28 169.9,-45.47"/>
</g>
<!-- 8 -->
<g id="node9" class="node">
<title>8</title>
<path fill="none" stroke="#56d8b9" stroke-width="2" stroke-dasharray="5,2" d="M88,-252C88,-252 12,-252 12,-252 6,-252 0,-246 0,-240 0,-240 0,-228 0,-228 0,-222 6,-216 12,-216 12,-216 88,-216 88,-216 94,-216 100,-222 100,-228 100,-228 100,-240 100,-240 100,-246 94,-252 88,-252"/>
<text text-anchor="middle" x="50" y="-231.5" font-family="sans" font-size="10.00">downloadeggnog</text>
</g>
<!-- 8&#45;&gt;7 -->
<g id="edge15" class="edge">
<title>8&#45;&gt;7</title>
<path fill="none" stroke="grey" stroke-width="2" d="M61.62,-215.7C67.14,-207.47 73.85,-197.48 79.93,-188.42"/>
<polygon fill="grey" stroke="grey" stroke-width="2" points="82.85,-190.36 85.52,-180.1 77.04,-186.46 82.85,-190.36"/>
</g>
<!-- 9 -->
<g id="node10" class="node">
<title>9</title>
<path fill="none" stroke="#d88d56" stroke-width="2" d="M281,-108C281,-108 195,-108 195,-108 189,-108 183,-102 183,-96 183,-96 183,-84 183,-84 183,-78 189,-72 195,-72 195,-72 281,-72 281,-72 287,-72 293,-78 293,-84 293,-84 293,-96 293,-96 293,-102 287,-108 281,-108"/>
<text text-anchor="middle" x="238" y="-87.5" font-family="sans" font-size="10.00">parse_ipr_pfam_tfs</text>
</g>
<!-- 9&#45;&gt;0 -->
<g id="edge3" class="edge">
<title>9&#45;&gt;0</title>
<path fill="none" stroke="grey" stroke-width="2" d="M227.62,-71.7C222.74,-63.56 216.81,-53.69 211.42,-44.7"/>
<polygon fill="grey" stroke="grey" stroke-width="2" points="214.41,-42.88 206.26,-36.1 208.41,-46.48 214.41,-42.88"/>
</g>
<!-- 10&#45;&gt;9 -->
<g id="edge16" class="edge">
<title>10&#45;&gt;9</title>
<path fill="none" stroke="grey" stroke-width="2" d="M265.1,-143.7C261,-135.73 256.05,-126.1 251.51,-117.26"/>
<polygon fill="grey" stroke="grey" stroke-width="2" points="254.48,-115.4 246.8,-108.1 248.26,-118.6 254.48,-115.4"/>
</g>
<!-- 11 -->
<g id="node12" class="node">
<title>11</title>
<path fill="none" stroke="#56d882" stroke-width="2" d="M409,-108C409,-108 323,-108 323,-108 317,-108 311,-102 311,-96 311,-96 311,-84 311,-84 311,-78 317,-72 323,-72 323,-72 409,-72 409,-72 415,-72 421,-78 421,-84 421,-84 421,-96 421,-96 421,-102 415,-108 409,-108"/>
<text text-anchor="middle" x="366" y="-87.5" font-family="sans" font-size="10.00">parse_ipr_sfam_tfs</text>
</g>
<!-- 10&#45;&gt;11 -->
<g id="edge18" class="edge">
<title>10&#45;&gt;11</title>
<path fill="none" stroke="grey" stroke-width="2" d="M296.74,-143.7C308.44,-134.8 322.86,-123.82 335.51,-114.2"/>
<polygon fill="grey" stroke="grey" stroke-width="2" points="337.68,-116.94 343.52,-108.1 333.44,-111.37 337.68,-116.94"/>
</g>
<!-- 11&#45;&gt;0 -->
<g id="edge4" class="edge">
<title>11&#45;&gt;0</title>
<path fill="none" stroke="grey" stroke-width="2" d="M324.41,-71.88C296.31,-60.3 259.55,-45.17 232.57,-34.06"/>
<polygon fill="grey" stroke="grey" stroke-width="2" points="233.68,-30.73 223.11,-30.16 231.02,-37.2 233.68,-30.73"/>
</g>
</g>
</svg>
