<?xml version="1.0" encoding="UTF-8" standalone="no"?>
<!DOCTYPE svg PUBLIC "-//W3C//DTD SVG 1.1//EN"
 "http://www.w3.org/Graphics/SVG/1.1/DTD/svg11.dtd">
<!-- Generated by graphviz version 2.43.0 (0)
 -->
<!-- Title: snakemake_dag Pages: 1 -->
<svg width="580pt" height="548pt"
 viewBox="0.00 0.00 579.50 548.00" xmlns="http://www.w3.org/2000/svg" xmlns:xlink="http://www.w3.org/1999/xlink">
<g id="graph0" class="graph" transform="scale(1 1) rotate(0) translate(4 544)">
<title>snakemake_dag</title>
<polygon fill="white" stroke="transparent" points="-4,4 -4,-544 575.5,-544 575.5,4 -4,4"/>
<!-- 0 -->
<g id="node1" class="node">
<title>0</title>
<path fill="none" stroke="#80d856" stroke-width="2" d="M242,-36C242,-36 212,-36 212,-36 206,-36 200,-30 200,-24 200,-24 200,-12 200,-12 200,-6 206,0 212,0 212,0 242,0 242,0 248,0 254,-6 254,-12 254,-12 254,-24 254,-24 254,-30 248,-36 242,-36"/>
<text text-anchor="middle" x="227" y="-15.5" font-family="sans" font-size="10.00">all</text>
</g>
<!-- 1 -->
<g id="node2" class="node">
<title>1</title>
<path fill="none" stroke="#d8ac56" stroke-width="2" stroke-dasharray="5,2" d="M352.5,-180C352.5,-180 207.5,-180 207.5,-180 201.5,-180 195.5,-174 195.5,-168 195.5,-168 195.5,-156 195.5,-156 195.5,-150 201.5,-144 207.5,-144 207.5,-144 352.5,-144 352.5,-144 358.5,-144 364.5,-150 364.5,-156 364.5,-156 364.5,-168 364.5,-168 364.5,-174 358.5,-180 352.5,-180"/>
<text text-anchor="middle" x="280" y="-159.5" font-family="sans" font-size="10.00">transdecoder_predict_evidence</text>
</g>
<!-- 1&#45;&gt;0 -->
<g id="edge1" class="edge">
<title>1&#45;&gt;0</title>
<path fill="none" stroke="grey" stroke-width="2" d="M277.57,-143.78C274.62,-125.49 268.78,-95.96 259,-72 255.24,-62.79 250.02,-53.32 244.88,-44.97"/>
<polygon fill="grey" stroke="grey" stroke-width="2" points="247.75,-42.96 239.42,-36.42 241.86,-46.73 247.75,-42.96"/>
</g>
<!-- 11 -->
<g id="node12" class="node">
<title>11</title>
<path fill="none" stroke="#56c1d8" stroke-width="2" d="M69,-108C69,-108 33,-108 33,-108 27,-108 21,-102 21,-96 21,-96 21,-84 21,-84 21,-78 27,-72 33,-72 33,-72 69,-72 69,-72 75,-72 81,-78 81,-84 81,-84 81,-96 81,-96 81,-102 75,-108 69,-108"/>
<text text-anchor="middle" x="51" y="-87.5" font-family="sans" font-size="10.00">emapper</text>
</g>
<!-- 1&#45;&gt;11 -->
<g id="edge19" class="edge">
<title>1&#45;&gt;11</title>
<path fill="none" stroke="grey" stroke-width="2" d="M209.79,-143.91C176.03,-135.1 134.93,-123.54 90.58,-107.98"/>
<polygon fill="grey" stroke="grey" stroke-width="2" points="91.66,-104.65 81.07,-104.6 89.32,-111.25 91.66,-104.65"/>
</g>
<!-- 13 -->
<g id="node14" class="node">
<title>13</title>
<path fill="none" stroke="#ced856" stroke-width="2" d="M238.5,-108C238.5,-108 111.5,-108 111.5,-108 105.5,-108 99.5,-102 99.5,-96 99.5,-96 99.5,-84 99.5,-84 99.5,-78 105.5,-72 111.5,-72 111.5,-72 238.5,-72 238.5,-72 244.5,-72 250.5,-78 250.5,-84 250.5,-84 250.5,-96 250.5,-96 250.5,-102 244.5,-108 238.5,-108"/>
<text text-anchor="middle" x="175" y="-87.5" font-family="sans" font-size="10.00">interproscan_pfam_panther</text>
</g>
<!-- 1&#45;&gt;13 -->
<g id="edge21" class="edge">
<title>1&#45;&gt;13</title>
<path fill="none" stroke="grey" stroke-width="2" d="M254.31,-143.88C240.71,-134.81 223.83,-123.55 209.14,-113.76"/>
<polygon fill="grey" stroke="grey" stroke-width="2" points="211.05,-110.82 200.78,-108.19 207.16,-116.65 211.05,-110.82"/>
</g>
<!-- 14 -->
<g id="node15" class="node">
<title>14</title>
<path fill="none" stroke="#d87556" stroke-width="2" d="M443.5,-108C443.5,-108 318.5,-108 318.5,-108 312.5,-108 306.5,-102 306.5,-96 306.5,-96 306.5,-84 306.5,-84 306.5,-78 312.5,-72 318.5,-72 318.5,-72 443.5,-72 443.5,-72 449.5,-72 455.5,-78 455.5,-84 455.5,-84 455.5,-96 455.5,-96 455.5,-102 449.5,-108 443.5,-108"/>
<text text-anchor="middle" x="381" y="-87.5" font-family="sans" font-size="10.00">interproscan_SUPERFAMILY</text>
</g>
<!-- 1&#45;&gt;14 -->
<g id="edge23" class="edge">
<title>1&#45;&gt;14</title>
<path fill="none" stroke="grey" stroke-width="2" d="M304.71,-143.88C317.67,-134.89 333.73,-123.76 347.77,-114.03"/>
<polygon fill="grey" stroke="grey" stroke-width="2" points="349.97,-116.76 356.2,-108.19 345.98,-111.01 349.97,-116.76"/>
</g>
<!-- 2 -->
<g id="node3" class="node">
<title>2</title>
<path fill="none" stroke="#5673d8" stroke-width="2" stroke-dasharray="5,2" d="M203.5,-324C203.5,-324 128.5,-324 128.5,-324 122.5,-324 116.5,-318 116.5,-312 116.5,-312 116.5,-300 116.5,-300 116.5,-294 122.5,-288 128.5,-288 128.5,-288 203.5,-288 203.5,-288 209.5,-288 215.5,-294 215.5,-300 215.5,-300 215.5,-312 215.5,-312 215.5,-318 209.5,-324 203.5,-324"/>
<text text-anchor="middle" x="166" y="-303.5" font-family="sans" font-size="10.00">downloadhmmer</text>
</g>
<!-- 2&#45;&gt;1 -->
<g id="edge5" class="edge">
<title>2&#45;&gt;1</title>
<path fill="none" stroke="grey" stroke-width="2" d="M172.86,-287.7C180.88,-268.8 195.46,-238.26 214,-216 223.14,-205.02 234.86,-194.74 245.88,-186.2"/>
<polygon fill="grey" stroke="grey" stroke-width="2" points="248.21,-188.83 254.11,-180.04 244.01,-183.23 248.21,-188.83"/>
</g>
<!-- 9 -->
<g id="node10" class="node">
<title>9</title>
<path fill="none" stroke="#56d863" stroke-width="2" stroke-dasharray="5,2" d="M316,-252C316,-252 244,-252 244,-252 238,-252 232,-246 232,-240 232,-240 232,-228 232,-228 232,-222 238,-216 244,-216 244,-216 316,-216 316,-216 322,-216 328,-222 328,-228 328,-228 328,-240 328,-240 328,-246 322,-252 316,-252"/>
<text text-anchor="middle" x="280" y="-231.5" font-family="sans" font-size="10.00">hmmerevidence</text>
</g>
<!-- 2&#45;&gt;9 -->
<g id="edge16" class="edge">
<title>2&#45;&gt;9</title>
<path fill="none" stroke="grey" stroke-width="2" d="M193.89,-287.88C208.79,-278.72 227.33,-267.34 243.38,-257.48"/>
<polygon fill="grey" stroke="grey" stroke-width="2" points="245.31,-260.41 252.01,-252.19 241.65,-254.44 245.31,-260.41"/>
</g>
<!-- 2&#45;&gt;13 -->
<g id="edge22" class="edge">
<title>2&#45;&gt;13</title>
<path fill="none" stroke="grey" stroke-width="2" d="M166.72,-287.85C168.28,-250.83 171.96,-163.18 173.85,-118.39"/>
<polygon fill="grey" stroke="grey" stroke-width="2" points="177.35,-118.37 174.28,-108.23 170.36,-118.08 177.35,-118.37"/>
</g>
<!-- 3 -->
<g id="node4" class="node">
<title>3</title>
<path fill="none" stroke="#56d89a" stroke-width="2" stroke-dasharray="5,2" d="M361,-324C361,-324 275,-324 275,-324 269,-324 263,-318 263,-312 263,-312 263,-300 263,-300 263,-294 269,-288 275,-288 275,-288 361,-288 361,-288 367,-288 373,-294 373,-300 373,-300 373,-312 373,-312 373,-318 367,-324 361,-324"/>
<text text-anchor="middle" x="318" y="-303.5" font-family="sans" font-size="10.00">downloadswissprot</text>
</g>
<!-- 3&#45;&gt;1 -->
<g id="edge6" class="edge">
<title>3&#45;&gt;1</title>
<path fill="none" stroke="grey" stroke-width="2" d="M265.32,-287.84C248.82,-279.7 232.47,-268.12 223,-252 214.9,-238.2 216.61,-230.67 223,-216 227.93,-204.68 236.61,-194.68 245.73,-186.51"/>
<polygon fill="grey" stroke="grey" stroke-width="2" points="247.99,-189.19 253.42,-180.09 243.5,-183.81 247.99,-189.19"/>
</g>
<!-- 10 -->
<g id="node11" class="node">
<title>10</title>
<path fill="none" stroke="#61d856" stroke-width="2" stroke-dasharray="5,2" d="M425.5,-252C425.5,-252 358.5,-252 358.5,-252 352.5,-252 346.5,-246 346.5,-240 346.5,-240 346.5,-228 346.5,-228 346.5,-222 352.5,-216 358.5,-216 358.5,-216 425.5,-216 425.5,-216 431.5,-216 437.5,-222 437.5,-228 437.5,-228 437.5,-240 437.5,-240 437.5,-246 431.5,-252 425.5,-252"/>
<text text-anchor="middle" x="392" y="-231.5" font-family="sans" font-size="10.00">blastpevidence</text>
</g>
<!-- 3&#45;&gt;10 -->
<g id="edge18" class="edge">
<title>3&#45;&gt;10</title>
<path fill="none" stroke="grey" stroke-width="2" d="M336.29,-287.7C345.43,-279.05 356.64,-268.45 366.6,-259.03"/>
<polygon fill="grey" stroke="grey" stroke-width="2" points="369.06,-261.52 373.92,-252.1 364.25,-256.43 369.06,-261.52"/>
</g>
<!-- 4 -->
<g id="node5" class="node">
<title>4</title>
<path fill="none" stroke="#56a9d8" stroke-width="2" stroke-dasharray="5,2" d="M491,-396C491,-396 461,-396 461,-396 455,-396 449,-390 449,-384 449,-384 449,-372 449,-372 449,-366 455,-360 461,-360 461,-360 491,-360 491,-360 497,-360 503,-366 503,-372 503,-372 503,-384 503,-384 503,-390 497,-396 491,-396"/>
<text text-anchor="middle" x="476" y="-375.5" font-family="sans" font-size="10.00">gffread</text>
</g>
<!-- 4&#45;&gt;1 -->
<g id="edge7" class="edge">
<title>4&#45;&gt;1</title>
<path fill="none" stroke="grey" stroke-width="2" d="M480.49,-359.67C487.72,-327.45 497.94,-257.77 464,-216 451.9,-201.11 413.28,-188.86 374.53,-179.91"/>
<polygon fill="grey" stroke="grey" stroke-width="2" points="375.21,-176.48 364.69,-177.71 373.68,-183.31 375.21,-176.48"/>
</g>
<!-- 8 -->
<g id="node9" class="node">
<title>8</title>
<path fill="none" stroke="#b6d856" stroke-width="2" stroke-dasharray="5,2" d="M436,-324C436,-324 404,-324 404,-324 398,-324 392,-318 392,-312 392,-312 392,-300 392,-300 392,-294 398,-288 404,-288 404,-288 436,-288 436,-288 442,-288 448,-294 448,-300 448,-300 448,-312 448,-312 448,-318 442,-324 436,-324"/>
<text text-anchor="middle" x="420" y="-303.5" font-family="sans" font-size="10.00">longorfs</text>
</g>
<!-- 4&#45;&gt;8 -->
<g id="edge14" class="edge">
<title>4&#45;&gt;8</title>
<path fill="none" stroke="grey" stroke-width="2" d="M462.16,-359.7C455.51,-351.39 447.42,-341.28 440.11,-332.14"/>
<polygon fill="grey" stroke="grey" stroke-width="2" points="442.66,-329.73 433.68,-324.1 437.2,-334.1 442.66,-329.73"/>
</g>
<!-- 5 -->
<g id="node6" class="node">
<title>5</title>
<path fill="none" stroke="#d85656" stroke-width="2" stroke-dasharray="5,2" d="M458.5,-468C458.5,-468 387.5,-468 387.5,-468 381.5,-468 375.5,-462 375.5,-456 375.5,-456 375.5,-444 375.5,-444 375.5,-438 381.5,-432 387.5,-432 387.5,-432 458.5,-432 458.5,-432 464.5,-432 470.5,-438 470.5,-444 470.5,-444 470.5,-456 470.5,-456 470.5,-462 464.5,-468 458.5,-468"/>
<text text-anchor="middle" x="423" y="-447.5" font-family="sans" font-size="10.00">longestisoforms</text>
</g>
<!-- 5&#45;&gt;4 -->
<g id="edge11" class="edge">
<title>5&#45;&gt;4</title>
<path fill="none" stroke="grey" stroke-width="2" d="M436.1,-431.7C442.39,-423.39 450.05,-413.28 456.96,-404.14"/>
<polygon fill="grey" stroke="grey" stroke-width="2" points="459.8,-406.19 463.05,-396.1 454.22,-401.96 459.8,-406.19"/>
</g>
<!-- 6 -->
<g id="node7" class="node">
<title>6</title>
<path fill="none" stroke="#d88d56" stroke-width="2" stroke-dasharray="5,2" d="M439.5,-540C439.5,-540 406.5,-540 406.5,-540 400.5,-540 394.5,-534 394.5,-528 394.5,-528 394.5,-516 394.5,-516 394.5,-510 400.5,-504 406.5,-504 406.5,-504 439.5,-504 439.5,-504 445.5,-504 451.5,-510 451.5,-516 451.5,-516 451.5,-528 451.5,-528 451.5,-534 445.5,-540 439.5,-540"/>
<text text-anchor="middle" x="423" y="-519.5" font-family="sans" font-size="10.00">parsegtf</text>
</g>
<!-- 6&#45;&gt;5 -->
<g id="edge13" class="edge">
<title>6&#45;&gt;5</title>
<path fill="none" stroke="grey" stroke-width="2" d="M423,-503.7C423,-495.98 423,-486.71 423,-478.11"/>
<polygon fill="grey" stroke="grey" stroke-width="2" points="426.5,-478.1 423,-468.1 419.5,-478.1 426.5,-478.1"/>
</g>
<!-- 7 -->
<g id="node8" class="node">
<title>7</title>
<path fill="none" stroke="#568ad8" stroke-width="2" stroke-dasharray="5,2" d="M559.5,-468C559.5,-468 500.5,-468 500.5,-468 494.5,-468 488.5,-462 488.5,-456 488.5,-456 488.5,-444 488.5,-444 488.5,-438 494.5,-432 500.5,-432 500.5,-432 559.5,-432 559.5,-432 565.5,-432 571.5,-438 571.5,-444 571.5,-444 571.5,-456 571.5,-456 571.5,-462 565.5,-468 559.5,-468"/>
<text text-anchor="middle" x="530" y="-447.5" font-family="sans" font-size="10.00">genomeindex</text>
</g>
<!-- 7&#45;&gt;4 -->
<g id="edge12" class="edge">
<title>7&#45;&gt;4</title>
<path fill="none" stroke="grey" stroke-width="2" d="M516.65,-431.7C510.24,-423.39 502.44,-413.28 495.39,-404.14"/>
<polygon fill="grey" stroke="grey" stroke-width="2" points="498.07,-401.88 489.19,-396.1 492.53,-406.16 498.07,-401.88"/>
</g>
<!-- 8&#45;&gt;1 -->
<g id="edge8" class="edge">
<title>8&#45;&gt;1</title>
<path fill="none" stroke="grey" stroke-width="2" d="M433.53,-287.75C446.78,-268.63 462.83,-237.63 447,-216 429.89,-192.61 402.38,-179.29 374.59,-171.79"/>
<polygon fill="grey" stroke="grey" stroke-width="2" points="375.31,-168.36 364.77,-169.37 373.64,-175.16 375.31,-168.36"/>
</g>
<!-- 8&#45;&gt;9 -->
<g id="edge15" class="edge">
<title>8&#45;&gt;9</title>
<path fill="none" stroke="grey" stroke-width="2" d="M391.67,-290.83C372.09,-281.05 345.68,-267.84 323.46,-256.73"/>
<polygon fill="grey" stroke="grey" stroke-width="2" points="324.74,-253.45 314.23,-252.11 321.6,-259.72 324.74,-253.45"/>
</g>
<!-- 8&#45;&gt;10 -->
<g id="edge17" class="edge">
<title>8&#45;&gt;10</title>
<path fill="none" stroke="grey" stroke-width="2" d="M413.08,-287.7C409.93,-279.81 406.12,-270.3 402.62,-261.55"/>
<polygon fill="grey" stroke="grey" stroke-width="2" points="405.81,-260.09 398.84,-252.1 399.31,-262.69 405.81,-260.09"/>
</g>
<!-- 9&#45;&gt;1 -->
<g id="edge9" class="edge">
<title>9&#45;&gt;1</title>
<path fill="none" stroke="grey" stroke-width="2" d="M280,-215.7C280,-207.98 280,-198.71 280,-190.11"/>
<polygon fill="grey" stroke="grey" stroke-width="2" points="283.5,-190.1 280,-180.1 276.5,-190.1 283.5,-190.1"/>
</g>
<!-- 10&#45;&gt;1 -->
<g id="edge10" class="edge">
<title>10&#45;&gt;1</title>
<path fill="none" stroke="grey" stroke-width="2" d="M364.6,-215.88C350.09,-206.81 332.08,-195.55 316.41,-185.76"/>
<polygon fill="grey" stroke="grey" stroke-width="2" points="317.84,-182.52 307.5,-180.19 314.13,-188.46 317.84,-182.52"/>
</g>
<!-- 11&#45;&gt;0 -->
<g id="edge2" class="edge">
<title>11&#45;&gt;0</title>
<path fill="none" stroke="grey" stroke-width="2" d="M81.18,-75.7C84.15,-74.43 87.13,-73.18 90,-72 123.72,-58.14 162.49,-43.23 190.17,-32.77"/>
<polygon fill="grey" stroke="grey" stroke-width="2" points="191.71,-35.93 199.83,-29.13 189.24,-29.38 191.71,-35.93"/>
</g>
<!-- 12 -->
<g id="node13" class="node">
<title>12</title>
<path fill="none" stroke="#56d882" stroke-width="2" d="M88,-180C88,-180 12,-180 12,-180 6,-180 0,-174 0,-168 0,-168 0,-156 0,-156 0,-150 6,-144 12,-144 12,-144 88,-144 88,-144 94,-144 100,-150 100,-156 100,-156 100,-168 100,-168 100,-174 94,-180 88,-180"/>
<text text-anchor="middle" x="50" y="-159.5" font-family="sans" font-size="10.00">downloadeggnog</text>
</g>
<!-- 12&#45;&gt;11 -->
<g id="edge20" class="edge">
<title>12&#45;&gt;11</title>
<path fill="none" stroke="grey" stroke-width="2" d="M50.25,-143.7C50.36,-135.98 50.49,-126.71 50.61,-118.11"/>
<polygon fill="grey" stroke="grey" stroke-width="2" points="54.11,-118.15 50.76,-108.1 47.11,-118.05 54.11,-118.15"/>
</g>
<!-- 13&#45;&gt;0 -->
<g id="edge3" class="edge">
<title>13&#45;&gt;0</title>
<path fill="none" stroke="grey" stroke-width="2" d="M187.85,-71.7C194.03,-63.39 201.54,-53.28 208.32,-44.14"/>
<polygon fill="grey" stroke="grey" stroke-width="2" points="211.14,-46.22 214.29,-36.1 205.52,-42.04 211.14,-46.22"/>
</g>
<!-- 14&#45;&gt;0 -->
<g id="edge4" class="edge">
<title>14&#45;&gt;0</title>
<path fill="none" stroke="grey" stroke-width="2" d="M343.33,-71.88C318.96,-60.8 287.4,-46.46 263.31,-35.5"/>
<polygon fill="grey" stroke="grey" stroke-width="2" points="264.7,-32.29 254.14,-31.34 261.8,-38.66 264.7,-32.29"/>
</g>
</g>
</svg>
