<?xml version="1.0" encoding="UTF-8" standalone="no"?>
<!DOCTYPE svg PUBLIC "-//W3C//DTD SVG 1.1//EN"
 "http://www.w3.org/Graphics/SVG/1.1/DTD/svg11.dtd">
<!-- Generated by graphviz version 2.43.0 (0)
 -->
<!-- Title: snakemake_dag Pages: 1 -->
<svg width="642pt" height="620pt"
 viewBox="0.00 0.00 641.50 620.00" xmlns="http://www.w3.org/2000/svg" xmlns:xlink="http://www.w3.org/1999/xlink">
<g id="graph0" class="graph" transform="scale(1 1) rotate(0) translate(4 616)">
<title>snakemake_dag</title>
<polygon fill="white" stroke="transparent" points="-4,4 -4,-616 637.5,-616 637.5,4 -4,4"/>
<!-- 0 -->
<g id="node1" class="node">
<title>0</title>
<path fill="none" stroke="#d8bc56" stroke-width="2" d="M302,-36C302,-36 272,-36 272,-36 266,-36 260,-30 260,-24 260,-24 260,-12 260,-12 260,-6 266,0 272,0 272,0 302,0 302,0 308,0 314,-6 314,-12 314,-12 314,-24 314,-24 314,-30 308,-36 302,-36"/>
<text text-anchor="middle" x="287" y="-15.5" font-family="sans" font-size="10.00">all</text>
</g>
<!-- 1 -->
<g id="node2" class="node">
<title>1</title>
<path fill="none" stroke="#56d88a" stroke-width="2" d="M321.5,-252C321.5,-252 176.5,-252 176.5,-252 170.5,-252 164.5,-246 164.5,-240 164.5,-240 164.5,-228 164.5,-228 164.5,-222 170.5,-216 176.5,-216 176.5,-216 321.5,-216 321.5,-216 327.5,-216 333.5,-222 333.5,-228 333.5,-228 333.5,-240 333.5,-240 333.5,-246 327.5,-252 321.5,-252"/>
<text text-anchor="middle" x="249" y="-231.5" font-family="sans" font-size="10.00">transdecoder_predict_evidence</text>
</g>
<!-- 1&#45;&gt;0 -->
<g id="edge1" class="edge">
<title>1&#45;&gt;0</title>
<path fill="none" stroke="grey" stroke-width="2" d="M252.05,-215.85C258.63,-178.75 274.25,-90.81 282.19,-46.1"/>
<polygon fill="grey" stroke="grey" stroke-width="2" points="285.64,-46.69 283.94,-36.23 278.75,-45.47 285.64,-46.69"/>
</g>
<!-- 11 -->
<g id="node12" class="node">
<title>11</title>
<path fill="none" stroke="#56c1d8" stroke-width="2" d="M111,-180C111,-180 75,-180 75,-180 69,-180 63,-174 63,-168 63,-168 63,-156 63,-156 63,-150 69,-144 75,-144 75,-144 111,-144 111,-144 117,-144 123,-150 123,-156 123,-156 123,-168 123,-168 123,-174 117,-180 111,-180"/>
<text text-anchor="middle" x="93" y="-159.5" font-family="sans" font-size="10.00">emapper</text>
</g>
<!-- 1&#45;&gt;11 -->
<g id="edge18" class="edge">
<title>1&#45;&gt;11</title>
<path fill="none" stroke="grey" stroke-width="2" d="M210.84,-215.88C187.03,-205.19 156.45,-191.47 132.41,-180.68"/>
<polygon fill="grey" stroke="grey" stroke-width="2" points="133.77,-177.46 123.21,-176.56 130.9,-183.84 133.77,-177.46"/>
</g>
<!-- 13 -->
<g id="node14" class="node">
<title>13</title>
<path fill="none" stroke="#5673d8" stroke-width="2" d="M233,-108C233,-108 177,-108 177,-108 171,-108 165,-102 165,-96 165,-96 165,-84 165,-84 165,-78 171,-72 177,-72 177,-72 233,-72 233,-72 239,-72 245,-78 245,-84 245,-84 245,-96 245,-96 245,-102 239,-108 233,-108"/>
<text text-anchor="middle" x="205" y="-87.5" font-family="sans" font-size="10.00">recipbesthits</text>
</g>
<!-- 1&#45;&gt;13 -->
<g id="edge20" class="edge">
<title>1&#45;&gt;13</title>
<path fill="none" stroke="grey" stroke-width="2" d="M246.56,-215.96C243.69,-197.81 238.24,-168.4 230,-144 227.01,-135.13 222.94,-125.79 218.95,-117.47"/>
<polygon fill="grey" stroke="grey" stroke-width="2" points="221.95,-115.65 214.38,-108.25 215.68,-118.76 221.95,-115.65"/>
</g>
<!-- 14 -->
<g id="node15" class="node">
<title>14</title>
<path fill="none" stroke="#56a2d8" stroke-width="2" d="M209,-180C209,-180 153,-180 153,-180 147,-180 141,-174 141,-168 141,-168 141,-156 141,-156 141,-150 147,-144 153,-144 153,-144 209,-144 209,-144 215,-144 221,-150 221,-156 221,-156 221,-168 221,-168 221,-174 215,-180 209,-180"/>
<text text-anchor="middle" x="181" y="-159.5" font-family="sans" font-size="10.00">makeblastdb</text>
</g>
<!-- 1&#45;&gt;14 -->
<g id="edge23" class="edge">
<title>1&#45;&gt;14</title>
<path fill="none" stroke="grey" stroke-width="2" d="M232.19,-215.7C223.87,-207.14 213.69,-196.66 204.61,-187.3"/>
<polygon fill="grey" stroke="grey" stroke-width="2" points="207.09,-184.84 197.62,-180.1 202.07,-189.72 207.09,-184.84"/>
</g>
<!-- 15 -->
<g id="node16" class="node">
<title>15</title>
<path fill="none" stroke="#d85656" stroke-width="2" d="M454.5,-180C454.5,-180 327.5,-180 327.5,-180 321.5,-180 315.5,-174 315.5,-168 315.5,-168 315.5,-156 315.5,-156 315.5,-150 321.5,-144 327.5,-144 327.5,-144 454.5,-144 454.5,-144 460.5,-144 466.5,-150 466.5,-156 466.5,-156 466.5,-168 466.5,-168 466.5,-174 460.5,-180 454.5,-180"/>
<text text-anchor="middle" x="391" y="-159.5" font-family="sans" font-size="10.00">interproscan_pfam_panther</text>
</g>
<!-- 1&#45;&gt;15 -->
<g id="edge24" class="edge">
<title>1&#45;&gt;15</title>
<path fill="none" stroke="grey" stroke-width="2" d="M283.74,-215.88C302.82,-206.47 326.68,-194.71 347.05,-184.67"/>
<polygon fill="grey" stroke="grey" stroke-width="2" points="348.71,-187.75 356.13,-180.19 345.61,-181.47 348.71,-187.75"/>
</g>
<!-- 16 -->
<g id="node17" class="node">
<title>16</title>
<path fill="none" stroke="#d86e56" stroke-width="2" d="M621.5,-180C621.5,-180 496.5,-180 496.5,-180 490.5,-180 484.5,-174 484.5,-168 484.5,-168 484.5,-156 484.5,-156 484.5,-150 490.5,-144 496.5,-144 496.5,-144 621.5,-144 621.5,-144 627.5,-144 633.5,-150 633.5,-156 633.5,-156 633.5,-168 633.5,-168 633.5,-174 627.5,-180 621.5,-180"/>
<text text-anchor="middle" x="559" y="-159.5" font-family="sans" font-size="10.00">interproscan_SUPERFAMILY</text>
</g>
<!-- 1&#45;&gt;16 -->
<g id="edge26" class="edge">
<title>1&#45;&gt;16</title>
<path fill="none" stroke="grey" stroke-width="2" d="M324.44,-215.97C369.78,-205.73 427.59,-192.67 474.47,-182.09"/>
<polygon fill="grey" stroke="grey" stroke-width="2" points="475.31,-185.48 484.3,-179.87 473.77,-178.66 475.31,-185.48"/>
</g>
<!-- 2 -->
<g id="node3" class="node">
<title>2</title>
<path fill="none" stroke="#70d856" stroke-width="2" d="M231,-468C231,-468 201,-468 201,-468 195,-468 189,-462 189,-456 189,-456 189,-444 189,-444 189,-438 195,-432 201,-432 201,-432 231,-432 231,-432 237,-432 243,-438 243,-444 243,-444 243,-456 243,-456 243,-462 237,-468 231,-468"/>
<text text-anchor="middle" x="216" y="-447.5" font-family="sans" font-size="10.00">gffread</text>
</g>
<!-- 2&#45;&gt;1 -->
<g id="edge6" class="edge">
<title>2&#45;&gt;1</title>
<path fill="none" stroke="grey" stroke-width="2" d="M219.01,-431.83C220.8,-421.46 223.09,-407.98 225,-396 232.47,-349.11 240.48,-294.42 245.09,-262.37"/>
<polygon fill="grey" stroke="grey" stroke-width="2" points="248.57,-262.81 246.52,-252.41 241.64,-261.81 248.57,-262.81"/>
</g>
<!-- 6 -->
<g id="node7" class="node">
<title>6</title>
<path fill="none" stroke="#bed856" stroke-width="2" d="M204,-396C204,-396 172,-396 172,-396 166,-396 160,-390 160,-384 160,-384 160,-372 160,-372 160,-366 166,-360 172,-360 172,-360 204,-360 204,-360 210,-360 216,-366 216,-372 216,-372 216,-384 216,-384 216,-390 210,-396 204,-396"/>
<text text-anchor="middle" x="188" y="-375.5" font-family="sans" font-size="10.00">longorfs</text>
</g>
<!-- 2&#45;&gt;6 -->
<g id="edge13" class="edge">
<title>2&#45;&gt;6</title>
<path fill="none" stroke="grey" stroke-width="2" d="M209.08,-431.7C205.93,-423.81 202.12,-414.3 198.62,-405.55"/>
<polygon fill="grey" stroke="grey" stroke-width="2" points="201.81,-404.09 194.84,-396.1 195.31,-406.69 201.81,-404.09"/>
</g>
<!-- 3 -->
<g id="node4" class="node">
<title>3</title>
<path fill="none" stroke="#d8a456" stroke-width="2" d="M198.5,-540C198.5,-540 127.5,-540 127.5,-540 121.5,-540 115.5,-534 115.5,-528 115.5,-528 115.5,-516 115.5,-516 115.5,-510 121.5,-504 127.5,-504 127.5,-504 198.5,-504 198.5,-504 204.5,-504 210.5,-510 210.5,-516 210.5,-516 210.5,-528 210.5,-528 210.5,-534 204.5,-540 198.5,-540"/>
<text text-anchor="middle" x="163" y="-519.5" font-family="sans" font-size="10.00">longestisoforms</text>
</g>
<!-- 3&#45;&gt;2 -->
<g id="edge10" class="edge">
<title>3&#45;&gt;2</title>
<path fill="none" stroke="grey" stroke-width="2" d="M176.1,-503.7C182.39,-495.39 190.05,-485.28 196.96,-476.14"/>
<polygon fill="grey" stroke="grey" stroke-width="2" points="199.8,-478.19 203.05,-468.1 194.22,-473.96 199.8,-478.19"/>
</g>
<!-- 4 -->
<g id="node5" class="node">
<title>4</title>
<path fill="none" stroke="#d6d856" stroke-width="2" d="M179.5,-612C179.5,-612 146.5,-612 146.5,-612 140.5,-612 134.5,-606 134.5,-600 134.5,-600 134.5,-588 134.5,-588 134.5,-582 140.5,-576 146.5,-576 146.5,-576 179.5,-576 179.5,-576 185.5,-576 191.5,-582 191.5,-588 191.5,-588 191.5,-600 191.5,-600 191.5,-606 185.5,-612 179.5,-612"/>
<text text-anchor="middle" x="163" y="-591.5" font-family="sans" font-size="10.00">parsegtf</text>
</g>
<!-- 4&#45;&gt;3 -->
<g id="edge12" class="edge">
<title>4&#45;&gt;3</title>
<path fill="none" stroke="grey" stroke-width="2" d="M163,-575.7C163,-567.98 163,-558.71 163,-550.11"/>
<polygon fill="grey" stroke="grey" stroke-width="2" points="166.5,-550.1 163,-540.1 159.5,-550.1 166.5,-550.1"/>
</g>
<!-- 5 -->
<g id="node6" class="node">
<title>5</title>
<path fill="none" stroke="#88d856" stroke-width="2" d="M299.5,-540C299.5,-540 240.5,-540 240.5,-540 234.5,-540 228.5,-534 228.5,-528 228.5,-528 228.5,-516 228.5,-516 228.5,-510 234.5,-504 240.5,-504 240.5,-504 299.5,-504 299.5,-504 305.5,-504 311.5,-510 311.5,-516 311.5,-516 311.5,-528 311.5,-528 311.5,-534 305.5,-540 299.5,-540"/>
<text text-anchor="middle" x="270" y="-519.5" font-family="sans" font-size="10.00">genomeindex</text>
</g>
<!-- 5&#45;&gt;2 -->
<g id="edge11" class="edge">
<title>5&#45;&gt;2</title>
<path fill="none" stroke="grey" stroke-width="2" d="M256.65,-503.7C250.24,-495.39 242.44,-485.28 235.39,-476.14"/>
<polygon fill="grey" stroke="grey" stroke-width="2" points="238.07,-473.88 229.19,-468.1 232.53,-478.16 238.07,-473.88"/>
</g>
<!-- 6&#45;&gt;1 -->
<g id="edge7" class="edge">
<title>6&#45;&gt;1</title>
<path fill="none" stroke="grey" stroke-width="2" d="M195.36,-359.87C205.85,-335.46 225.19,-290.43 237.56,-261.64"/>
<polygon fill="grey" stroke="grey" stroke-width="2" points="240.88,-262.76 241.62,-252.19 234.45,-260 240.88,-262.76"/>
</g>
<!-- 7 -->
<g id="node8" class="node">
<title>7</title>
<path fill="none" stroke="#56d8d8" stroke-width="2" d="M356,-324C356,-324 284,-324 284,-324 278,-324 272,-318 272,-312 272,-312 272,-300 272,-300 272,-294 278,-288 284,-288 284,-288 356,-288 356,-288 362,-288 368,-294 368,-300 368,-300 368,-312 368,-312 368,-318 362,-324 356,-324"/>
<text text-anchor="middle" x="320" y="-303.5" font-family="sans" font-size="10.00">hmmerevidence</text>
</g>
<!-- 6&#45;&gt;7 -->
<g id="edge14" class="edge">
<title>6&#45;&gt;7</title>
<path fill="none" stroke="grey" stroke-width="2" d="M216.32,-361.98C234.45,-352.37 258.29,-339.73 278.53,-328.99"/>
<polygon fill="grey" stroke="grey" stroke-width="2" points="280.35,-331.99 287.55,-324.21 277.07,-325.8 280.35,-331.99"/>
</g>
<!-- 9 -->
<g id="node10" class="node">
<title>9</title>
<path fill="none" stroke="#59d856" stroke-width="2" d="M165.5,-324C165.5,-324 98.5,-324 98.5,-324 92.5,-324 86.5,-318 86.5,-312 86.5,-312 86.5,-300 86.5,-300 86.5,-294 92.5,-288 98.5,-288 98.5,-288 165.5,-288 165.5,-288 171.5,-288 177.5,-294 177.5,-300 177.5,-300 177.5,-312 177.5,-312 177.5,-318 171.5,-324 165.5,-324"/>
<text text-anchor="middle" x="132" y="-303.5" font-family="sans" font-size="10.00">blastpevidence</text>
</g>
<!-- 6&#45;&gt;9 -->
<g id="edge16" class="edge">
<title>6&#45;&gt;9</title>
<path fill="none" stroke="grey" stroke-width="2" d="M174.16,-359.7C167.51,-351.39 159.42,-341.28 152.11,-332.14"/>
<polygon fill="grey" stroke="grey" stroke-width="2" points="154.66,-329.73 145.68,-324.1 149.2,-334.1 154.66,-329.73"/>
</g>
<!-- 7&#45;&gt;1 -->
<g id="edge8" class="edge">
<title>7&#45;&gt;1</title>
<path fill="none" stroke="grey" stroke-width="2" d="M302.45,-287.7C293.77,-279.14 283.14,-268.66 273.65,-259.3"/>
<polygon fill="grey" stroke="grey" stroke-width="2" points="275.93,-256.63 266.35,-252.1 271.01,-261.62 275.93,-256.63"/>
</g>
<!-- 8 -->
<g id="node9" class="node">
<title>8</title>
<path fill="none" stroke="#d88d56" stroke-width="2" d="M396.5,-396C396.5,-396 321.5,-396 321.5,-396 315.5,-396 309.5,-390 309.5,-384 309.5,-384 309.5,-372 309.5,-372 309.5,-366 315.5,-360 321.5,-360 321.5,-360 396.5,-360 396.5,-360 402.5,-360 408.5,-366 408.5,-372 408.5,-372 408.5,-384 408.5,-384 408.5,-390 402.5,-396 396.5,-396"/>
<text text-anchor="middle" x="359" y="-375.5" font-family="sans" font-size="10.00">downloadhmmer</text>
</g>
<!-- 8&#45;&gt;7 -->
<g id="edge15" class="edge">
<title>8&#45;&gt;7</title>
<path fill="none" stroke="grey" stroke-width="2" d="M349.36,-359.7C344.87,-351.64 339.44,-341.89 334.48,-332.98"/>
<polygon fill="grey" stroke="grey" stroke-width="2" points="337.45,-331.14 329.53,-324.1 331.34,-334.54 337.45,-331.14"/>
</g>
<!-- 8&#45;&gt;15 -->
<g id="edge25" class="edge">
<title>8&#45;&gt;15</title>
<path fill="none" stroke="grey" stroke-width="2" d="M366.08,-359.63C369.94,-349.42 374.44,-336.17 377,-324 386.74,-277.62 389.72,-222.36 390.62,-190.12"/>
<polygon fill="grey" stroke="grey" stroke-width="2" points="394.12,-190.2 390.86,-180.12 387.13,-190.03 394.12,-190.2"/>
</g>
<!-- 9&#45;&gt;1 -->
<g id="edge9" class="edge">
<title>9&#45;&gt;1</title>
<path fill="none" stroke="grey" stroke-width="2" d="M160.62,-287.88C175.92,-278.72 194.94,-267.34 211.42,-257.48"/>
<polygon fill="grey" stroke="grey" stroke-width="2" points="213.48,-260.33 220.27,-252.19 209.89,-254.32 213.48,-260.33"/>
</g>
<!-- 10 -->
<g id="node11" class="node">
<title>10</title>
<path fill="none" stroke="#56d8c1" stroke-width="2" d="M98,-396C98,-396 12,-396 12,-396 6,-396 0,-390 0,-384 0,-384 0,-372 0,-372 0,-366 6,-360 12,-360 12,-360 98,-360 98,-360 104,-360 110,-366 110,-372 110,-372 110,-384 110,-384 110,-390 104,-396 98,-396"/>
<text text-anchor="middle" x="55" y="-375.5" font-family="sans" font-size="10.00">downloadswissprot</text>
</g>
<!-- 10&#45;&gt;9 -->
<g id="edge17" class="edge">
<title>10&#45;&gt;9</title>
<path fill="none" stroke="grey" stroke-width="2" d="M74.03,-359.7C83.54,-351.05 95.21,-340.45 105.57,-331.03"/>
<polygon fill="grey" stroke="grey" stroke-width="2" points="108.14,-333.42 113.19,-324.1 103.43,-328.24 108.14,-333.42"/>
</g>
<!-- 10&#45;&gt;13 -->
<g id="edge21" class="edge">
<title>10&#45;&gt;13</title>
<path fill="none" stroke="grey" stroke-width="2" d="M48.18,-359.97C32.38,-317.43 -1.32,-205.5 54,-144 79.68,-115.45 121.64,-102.28 154.82,-96.21"/>
<polygon fill="grey" stroke="grey" stroke-width="2" points="155.52,-99.64 164.81,-94.54 154.37,-92.73 155.52,-99.64"/>
</g>
<!-- 11&#45;&gt;0 -->
<g id="edge2" class="edge">
<title>11&#45;&gt;0</title>
<path fill="none" stroke="grey" stroke-width="2" d="M101.38,-143.68C111.72,-123.9 131.06,-91.74 156,-72 183.84,-49.96 222.07,-35.9 250.05,-27.84"/>
<polygon fill="grey" stroke="grey" stroke-width="2" points="251.14,-31.17 259.85,-25.14 249.28,-24.42 251.14,-31.17"/>
</g>
<!-- 12 -->
<g id="node13" class="node">
<title>12</title>
<path fill="none" stroke="#568ad8" stroke-width="2" d="M134,-252C134,-252 58,-252 58,-252 52,-252 46,-246 46,-240 46,-240 46,-228 46,-228 46,-222 52,-216 58,-216 58,-216 134,-216 134,-216 140,-216 146,-222 146,-228 146,-228 146,-240 146,-240 146,-246 140,-252 134,-252"/>
<text text-anchor="middle" x="96" y="-231.5" font-family="sans" font-size="10.00">downloadeggnog</text>
</g>
<!-- 12&#45;&gt;11 -->
<g id="edge19" class="edge">
<title>12&#45;&gt;11</title>
<path fill="none" stroke="grey" stroke-width="2" d="M95.26,-215.7C94.93,-207.98 94.53,-198.71 94.16,-190.11"/>
<polygon fill="grey" stroke="grey" stroke-width="2" points="97.66,-189.95 93.73,-180.1 90.66,-190.25 97.66,-189.95"/>
</g>
<!-- 13&#45;&gt;0 -->
<g id="edge3" class="edge">
<title>13&#45;&gt;0</title>
<path fill="none" stroke="grey" stroke-width="2" d="M225.27,-71.7C235.5,-62.97 248.06,-52.24 259.18,-42.75"/>
<polygon fill="grey" stroke="grey" stroke-width="2" points="261.63,-45.26 266.96,-36.1 257.09,-39.94 261.63,-45.26"/>
</g>
<!-- 14&#45;&gt;13 -->
<g id="edge22" class="edge">
<title>14&#45;&gt;13</title>
<path fill="none" stroke="grey" stroke-width="2" d="M186.93,-143.7C189.61,-135.9 192.83,-126.51 195.8,-117.83"/>
<polygon fill="grey" stroke="grey" stroke-width="2" points="199.2,-118.7 199.14,-108.1 192.58,-116.43 199.2,-118.7"/>
</g>
<!-- 15&#45;&gt;0 -->
<g id="edge4" class="edge">
<title>15&#45;&gt;0</title>
<path fill="none" stroke="grey" stroke-width="2" d="M378.46,-143.87C360.34,-119.14 326.73,-73.24 305.68,-44.51"/>
<polygon fill="grey" stroke="grey" stroke-width="2" points="308.32,-42.19 299.59,-36.19 302.67,-46.33 308.32,-42.19"/>
</g>
<!-- 16&#45;&gt;0 -->
<g id="edge5" class="edge">
<title>16&#45;&gt;0</title>
<path fill="none" stroke="grey" stroke-width="2" d="M526.19,-143.87C475.01,-117.15 376.51,-65.73 323.28,-37.94"/>
<polygon fill="grey" stroke="grey" stroke-width="2" points="324.68,-34.73 314.2,-33.2 321.45,-40.93 324.68,-34.73"/>
</g>
<!-- 17 -->
<g id="node18" class="node">
<title>17</title>
<path fill="none" stroke="#56d8a2" stroke-width="2" d="M592,-252C592,-252 526,-252 526,-252 520,-252 514,-246 514,-240 514,-240 514,-228 514,-228 514,-222 520,-216 526,-216 526,-216 592,-216 592,-216 598,-216 604,-222 604,-228 604,-228 604,-240 604,-240 604,-246 598,-252 592,-252"/>
<text text-anchor="middle" x="559" y="-231.5" font-family="sans" font-size="10.00">downloadSFAM</text>
</g>
<!-- 17&#45;&gt;16 -->
<g id="edge27" class="edge">
<title>17&#45;&gt;16</title>
<path fill="none" stroke="grey" stroke-width="2" d="M559,-215.7C559,-207.98 559,-198.71 559,-190.11"/>
<polygon fill="grey" stroke="grey" stroke-width="2" points="562.5,-190.1 559,-180.1 555.5,-190.1 562.5,-190.1"/>
</g>
</g>
</svg>
